<?xml version="1.0" encoding="UTF-8" standalone="no"?>
<!-- Generator: Adobe Illustrator 24.1.0, SVG Export Plug-In . SVG Version: 6.00 Build 0)  -->

<svg
   version="1.1"
   id="Layer_1"
   x="0px"
   y="0px"
   viewBox="0 0 732.9 213.9"
   style="enable-background:new 0 0 732.9 213.9;"
   xml:space="preserve"
   sodipodi:docname="cisa-logo-title.svg"
   inkscape:version="1.4 (86a8ad7, 2024-10-11)"
   xmlns:inkscape="http://www.inkscape.org/namespaces/inkscape"
   xmlns:sodipodi="http://sodipodi.sourceforge.net/DTD/sodipodi-0.dtd"
   xmlns="http://www.w3.org/2000/svg"
   xmlns:svg="http://www.w3.org/2000/svg"><defs
   id="defs93" /><sodipodi:namedview
   id="namedview93"
   pagecolor="#ffffff"
   bordercolor="#000000"
   borderopacity="0.25"
   inkscape:showpageshadow="2"
   inkscape:pageopacity="0.0"
   inkscape:pagecheckerboard="0"
   inkscape:deskcolor="#d1d1d1"
   showgrid="false"
   inkscape:zoom="1.5885541"
   inkscape:cx="352.20709"
   inkscape:cy="142.58249"
   inkscape:window-width="1718"
   inkscape:window-height="1341"
   inkscape:window-x="-8"
   inkscape:window-y="0"
   inkscape:window-maximized="0"
   inkscape:current-layer="Layer_1"><inkscape:grid
     id="grid93"
     units="px"
     originx="0"
     originy="0"
     spacingx="0.99999997"
     spacingy="1"
     empcolor="#0099e5"
     empopacity="0.30196078"
     color="#0099e5"
     opacity="0.14902"
     empspacing="5"
     enabled="true"
     visible="false" /></sodipodi:namedview>
<style
   type="text/css"
   id="style1">
	.st0{fill:#FFFFFF;}
	.st1{fill:#005288;}
	.st2{fill:#C41230;}
	.st3{fill:#0078AE;}
	.st4{fill:#5E9732;}
</style>
<g
   id="g51">
	<path
   class="st0"
   d="M107,213.9c59.1,0,107-47.9,107-107S166.1,0,107,0S0,47.9,0,107S47.9,213.9,107,213.9z"
   id="path1" />
	<path
   class="st1"
   d="M107,2.6C49.5,2.6,2.6,49.4,2.6,107s46.9,104.3,104.5,104.3c57.5,0,104.5-46.8,104.5-104.4   C211.5,49.4,164.7,2.6,107,2.6z M107,205.2c-54.2,0-98.2-44-98.2-98.2C8.8,52.9,52.9,8.9,107,8.9c54.2,0,98.2,44,98.2,98.2   C205.3,161.2,161.2,205.2,107,205.2z"
   id="path2" />
	<path
   class="st1"
   d="M113,145.8c3.3-0.6,6.9-1,10.3-1.1v0.8c-8.5,0.4-14.9,2.8-19.1,5c-0.6-0.6-1.1-1.2-1.7-1.9   C105.5,147.6,109,146.5,113,145.8L113,145.8z M104.7,151c1.5,1.5,2.9,2.9,4.5,4.3v-2.8c0-1.5,1-2.7,2.3-2.7s2.3,1.2,2.3,2.7v6.4   c0.7,0.5,1.5,1,2.2,1.6v-10c0-1.5,1-2.7,2.3-2.7s2.3,1.2,2.3,2.7v12.9c0.8,0.5,1.8,0.9,2.6,1.4v-18.5   C115,146.5,108.9,148.8,104.7,151L104.7,151z M110.6,135.1l1.6,0.7l0.8-0.5l-2.1-1.2L110.6,135.1L110.6,135.1z M111.5,131.9   l1.7-1.4l-1-0.8L111.5,131.9L111.5,131.9z M112.3,128.8l1.6,1.2l1.6-1.2l-1.6-5.9L112.3,128.8L112.3,128.8z M115.7,135.8v-1   l-0.8,0.5L115.7,135.8z M113.2,136.4l2.5,1.2V137l-1.8-1L113.2,136.4L113.2,136.4z M115.8,129.7l-1,0.8l1.7,1.2L115.8,129.7   L115.8,129.7z M113.9,134.8l2.7-1.6l-2.7-2.1l-2.7,2.1L113.9,134.8z M116.5,134.4l0.2,0.1l0.3,0.2l-0.1-0.5L116.5,134.4z    M114.7,53.9l-2.3,1.2l-1.2,1.8c-0.7-0.3-2.6-1.1-4.4-1.8c-1.8-0.6-4.2-1.5-4.2-1.5c4.6,0,5.6,0.1,5.8,0.1l0,0   C108.6,53.8,109.7,53.8,114.7,53.9L114.7,53.9z M178.2,107c0,39.3-31.9,71.1-71.1,71.1c-8.2,0-16.1-1.4-23.5-3.9   c0,0,13.7-10.9,19.5-16.8c-4.1-3.8-7.7-8.1-10.9-12.8c-2.5-3.6-4.7-7.6-6.4-11.5l-34.1,34.1l1.1-13.8c-10.6-12.5-17-28.6-17-46.1   c0-39.3,31.9-71.1,71.1-71.1C146.4,35.9,178.2,67.7,178.2,107L178.2,107z M71.4,49.2l15.9,8.5L78.2,67l6.8-0.3l-5.6,9.2   c0.1,0,0.2,0,0.4,0c4.2,0,8.1,1.4,11.2,3.6c7.3-1.1,17.8-2.5,27.5-3.1c0,0-0.1-0.1-0.1-0.2c-0.1-0.3-0.3-0.6-0.4-0.8   c-0.2-0.4-0.4-0.9-0.7-1.4c-0.3-0.6-0.6-1.1-0.8-1.8c-0.3-0.7-0.7-1.4-1-2.1c-0.4-0.8-0.8-1.6-1.1-2.4c0,0,1.7-2.4,5-3.3   c3-0.9,6.4,0,8.4,2.6c0.6,0.8,1.1,1.8,1.1,2.8c0,0,5.2-7.9,3.9-12.4c-1.2-4.5-11.2-4.1-11.2-4.1h-3.5l-3-3.2   c-0.8-0.8-1.9-1.4-3-1.4L71.4,49.2L71.4,49.2z M58.3,115.8l8-8.5v-8.5l-7.3,7.7L58.3,115.8z M82.9,104.4c3.8-1.4,6.4-5.1,6.4-9.1   c0-0.1,0-0.2,0-0.4c-1.2-0.2-2.4-1-2.8-2.3h-6.2c-0.2,0.6-0.6,1-1,1.5c-0.6,0.5-1.4,0.8-2.2,0.8c-1.5,0-2.8-0.9-3.2-2.3h-1.7   l-3.4,3.6v11.9L58,119.5l-0.8,10.7L68,118.8c-0.2-0.4-0.4-1-0.4-1.6c0-1.9,1.6-3.4,3.4-3.4s3.4,1.6,3.4,3.4c0,1.9-1.6,3.4-3.4,3.4   c-0.5,0-0.9-0.1-1.4-0.3l-12.8,13.5l-0.9,10.7l11.9-12.6c-0.2-0.4-0.4-1-0.4-1.6c0-1.9,1.6-3.4,3.4-3.4s3.4,1.6,3.4,3.4   s-1.6,3.4-3.4,3.4c-0.5,0-0.9-0.1-1.4-0.3l-14,15l-1,12.4L82,133.2v-28.6L82.9,104.4L82.9,104.4z M71,131.6c0.6,0,1-0.5,1-1   c0-0.6-0.5-1-1-1c-0.6,0-1,0.5-1,1C69.9,131.1,70.4,131.6,71,131.6z M71,118.4c0.6,0,1-0.5,1-1s-0.5-1-1-1c-0.6,0-1,0.5-1,1   S70.4,118.4,71,118.4z M77.1,92.5c0.6,0,1-0.5,1-1c0-0.6-0.5-1-1-1c-0.6,0-1,0.5-1,1C76.1,92.1,76.5,92.5,77.1,92.5z M89.8,92.5   c0.6,0,1-0.5,1-1c0-0.6-0.5-1-1-1c-0.6,0-1,0.5-1,1C88.8,92.1,89.3,92.5,89.8,92.5z M90.5,124.9v-16.7c3.6-3.1,6-7.8,6-13   s-2.4-10-6.1-13.1c-0.8-0.7-1.9-1.4-2.8-1.9c-2.4-1.2-5.1-2-7.9-2c-6,0-11.3,3.1-14.3,7.9c-0.2,0.4-5.3,9-5.3,9l-0.6,7.5l11.7-12.4   h2.7c0.5-1.4,1.8-2.3,3.2-2.3c0.8,0,1.6,0.3,2.2,0.8c0.4,0.4,0.8,0.9,1,1.5h6.2c0.5-1.4,1.8-2.3,3.2-2.3c1.9,0,3.4,1.6,3.4,3.4   c0,1.2-0.6,2.3-1.6,2.9c0,0.3,0,0.6,0,0.8c0,4.8-2.9,9.1-7.2,11v25L90.5,124.9L90.5,124.9z M171.3,102.2V83.6c0,0-19.4-5-43.4-5   c-0.5,0-1,0-1.6,0c-10.8,0.1-24,1.8-33.2,3.1c3.4,3.4,5.6,8.2,5.6,13.5s-2.2,10.3-6,13.9v0.6h74.9c-1.1,10-4.3,19.4-9.2,27.8v-2   h-6.1v-3.1h-3.4v-3.6h-2.1v-2.2c0-0.3-0.1-0.6-0.2-0.8c-0.3-0.5-0.8-0.7-1.4-0.7c-0.5,0-1,0.3-1.4,0.7c-0.2,0.3-0.3,0.6-0.3,0.9   v2.2h-2.1v3.6h-2.5v-11.7h-15.8v16.9l-4.8-2.3c-1.2-4.4-2.6-8.7-3.8-13.1c0.3-0.2,0.6-0.6,0.6-1.1c0-0.7-0.6-1.4-1.4-1.4   c-0.7,0-1.4,0.6-1.4,1.4c0,0.5,0.2,0.8,0.6,1.1c-1.1,4.1-2.4,8.1-3.6,12.3h-0.1l-1-0.5v4.1h-1.9l-0.8-14v-0.7h-5.6v0.7l-0.8,14   h-4.4c-1.8-3-3.4-6.1-4.7-9.5l-2.5,2.5c7.5,17.3,21.5,31.3,38.8,38.6C152.9,158.6,171.4,132.5,171.3,102.2L171.3,102.2z"
   id="path3" />
	<path
   class="st1"
   d="M21.8,111.6v-2.7c1.5,0,2.6,0.3,3.6,1c0.9,0.7,1.6,1.8,1.7,3.1c0.1,1.7-0.4,2.9-1.6,3.8   c-1.1,0.9-2.8,1.6-4.9,1.7c-2.2,0.2-3.8-0.1-5.1-0.8c-1.2-0.7-2-2-2.1-3.6c-0.2-2.8,1.4-4.4,4.8-4.9l0.4,2.6   c-2,0.2-2.9,0.9-2.8,2.1c0,0.6,0.4,1,1,1.4c0.6,0.3,1.9,0.4,3.7,0.2c1.7-0.1,2.7-0.4,3.3-0.7c0.6-0.4,0.8-0.9,0.8-1.6   C24.5,112.3,23.5,111.6,21.8,111.6L21.8,111.6z"
   id="path4" />
	<path
   class="st1"
   d="M13.2,108.5l0.1-3.2l4.9-1.7l-4.8-2.2l0.1-2.8l7.6,3.9l5.6,0.2l-0.1,2.9l-5.6-0.2L13.2,108.5L13.2,108.5z"
   id="path5" />
	<path
   class="st1"
   d="M13.7,96.8l0.7-4.5c0.2-1,0.4-1.9,0.6-2.4c0.2-0.5,0.7-0.9,1.4-1.1c0.6-0.3,1.4-0.3,2.2-0.2   c1.5,0.2,2.3,1,2.5,2.3c0.7-1.5,2-2,3.5-1.8c0.8,0.1,1.6,0.4,2.1,0.9s0.8,1,0.9,1.7c0.1,0.6,0.1,1.5-0.1,2.6l-0.7,4.5L13.7,96.8   L13.7,96.8z M19.4,94.8l0.1-0.9c0.1-0.9,0.1-1.6-0.2-1.9s-0.6-0.5-1-0.5c-0.4-0.1-0.7,0-1.1,0.2c-0.3,0.2-0.6,0.7-0.7,1.5l-0.2,1.1   L19.4,94.8L19.4,94.8z M25,95.6l0.2-1.5c0.2-1.4-0.3-2.1-1.5-2.3c-0.6-0.1-1.1,0-1.5,0.3c-0.3,0.3-0.5,0.7-0.6,1.5l-0.2,1.5   L25,95.6z"
   id="path6" />
	<path
   class="st1"
   d="M15.9,84.5l2.2-7.8l2.2,0.6l-1.5,5l3.1,0.8l1.1-3.8l2.2,0.6l-1.1,3.8l3.1,0.9l1.5-5l2.3,0.6L28.8,88L15.9,84.5   L15.9,84.5z"
   id="path7" />
	<path
   class="st1"
   d="M19,74.3l1.7-3.8c0.3-0.7,0.6-1.4,0.8-1.7c0.2-0.4,0.6-0.7,1-0.9c0.5-0.3,1-0.4,1.7-0.4s1.2,0.1,1.9,0.4   c1.6,0.6,2.4,1.7,2.5,3.1h6.3l-1.2,2.9l-5.5-0.5l-0.5,1.4l4.9,2.1l-1.2,2.7L19,74.3z M22.1,72.4l3.4,1.5l0.5-1.1   c0.4-1,0.1-1.9-1.1-2.3c-0.4-0.2-0.7-0.2-1.1-0.2c-0.3,0-0.6,0.1-0.7,0.3c-0.2,0.2-0.3,0.4-0.5,0.8L22.1,72.4L22.1,72.4z"
   id="path8" />
	<path
   class="st1"
   d="M30.6,57.6l-0.4,2.6c-1.1-0.2-1.9,0-2.4,0.8c-0.2,0.4-0.3,0.7-0.2,1s0.3,0.6,0.5,0.7c0.3,0.2,0.6,0.2,1,0.1   c0.3-0.1,0.9-0.5,1.7-1.1c0.7-0.6,1.4-1,1.9-1.2c0.5-0.3,1-0.4,1.7-0.4s1.2,0.2,1.9,0.5c1,0.6,1.8,1.5,2,2.6c0.2,1.1,0,2.3-0.7,3.5   c-1.2,2.1-3,2.8-5.5,2.2l0.6-2.6c1.4,0.4,2.3,0.1,2.8-0.8c0.2-0.4,0.3-0.8,0.3-1.2c-0.1-0.4-0.3-0.7-0.6-0.9s-0.6-0.2-0.9-0.1   c-0.3,0.1-0.8,0.4-1.5,0.9c-0.8,0.7-1.5,1.1-2,1.5c-0.5,0.3-1,0.4-1.8,0.4c-0.6,0-1.2-0.2-1.9-0.5c-1-0.6-1.7-1.5-2-2.5   S25,61,25.6,59.9C26.9,57.8,28.5,57.1,30.6,57.6z"
   id="path9" />
	<path
   class="st1"
   d="M29.9,53.5l4.9-6.4l1.9,1.4l-3.1,4.2l2.5,1.9l2.4-3.2l1.9,1.4L38,56l2.6,2l3.1-4.2l1.9,1.5l-4.9,6.4L29.9,53.5   L29.9,53.5z"
   id="path10" />
	<path
   class="st1"
   d="M47,46.2l2-1.9c0.9,1,1.6,2.2,1.6,3.4c0.1,1.2-0.3,2.3-1.2,3.3c-1.1,1.1-2.4,1.7-3.9,1.5s-3-1-4.5-2.6   c-1.6-1.5-2.5-2.9-2.8-4.4s0.1-2.8,1.4-3.9c2-2,4.2-1.9,6.9,0.3L44.8,44c-1.5-1.4-2.6-1.6-3.4-0.7c-0.4,0.4-0.5,1-0.3,1.7   s0.9,1.7,2.3,2.9c1.1,1.1,2.1,1.8,2.8,2c0.6,0.2,1.2,0,1.7-0.4C48.4,48.7,48.2,47.7,47,46.2L47,46.2z"
   id="path11" />
	<path
   class="st1"
   d="M45,36.5l2.3-1.9l4.8,5.9c0.6,0.8,1.1,1.4,1.6,1.7c0.3,0.3,0.7,0.4,1,0.4c0.4,0,0.7-0.2,1-0.4   c0.4-0.3,0.6-0.6,0.7-1c0.1-0.4,0-0.7-0.2-1s-0.6-0.9-1.2-1.8l-4.8-6l1.9-1.6l4.7,5.8c0.9,1.1,1.6,2.1,1.9,2.8   c0.3,0.7,0.4,1.5,0.1,2.3c-0.2,0.8-0.8,1.7-1.8,2.4c-0.9,0.7-1.8,1.1-2.5,1.2c-0.7,0.1-1.5,0-2.1-0.4s-1.6-1.2-2.6-2.6L45,36.5   L45,36.5z"
   id="path12" />
	<path
   class="st1"
   d="M55.3,28.6l3.6-2.2c0.7-0.4,1.2-0.7,1.7-0.8c0.4-0.2,0.8-0.2,1.5-0.2c0.5,0,1,0.2,1.6,0.6   c0.5,0.3,0.9,0.8,1.4,1.5c0.8,1.5,0.9,2.7,0.2,3.9l5.1,3.7l-2.7,1.7l-4.3-3.6l-1.2,0.7l2.7,4.5l-2.5,1.5L55.3,28.6L55.3,28.6z    M59,29l1.9,3.2l1.1-0.6c0.9-0.6,1.1-1.5,0.5-2.5c-0.2-0.4-0.5-0.6-0.7-0.8c-0.3-0.2-0.5-0.2-0.8-0.2c-0.2,0-0.5,0.2-0.9,0.4L59,29   z"
   id="path13" />
	<path
   class="st1"
   d="M65.6,22.7l2.6-1.2l5.7,12l-2.6,1.2L65.6,22.7z"
   id="path14" />
	<path
   class="st1"
   d="M69.9,20.8l7.8-2.9l0.8,2.3L76,21.1l3.8,10.1l-2.7,1l-3.8-10.1L70.8,23L69.9,20.8L69.9,20.8z"
   id="path15" />
	<path
   class="st1"
   d="M79,17.3l3.1-0.8l3,4.3l0.7-5.2l2.8-0.7l-1.7,8.3l1.4,5.4l-2.8,0.7l-1.4-5.4L79,17.3L79,17.3z"
   id="path16" />
	<path
   class="st1"
   d="M104,18.8l2.2,0.2c-0.2,1.6-0.7,3-1.5,4.4c0.5,0.4,0.9,0.6,1.5,0.6c0.1,0,0.2,0,0.4,0l0.2,2.3   c-0.3,0.1-0.7,0.2-1,0.2c-0.9,0.1-1.8-0.3-2.7-1c-1,0.9-2.2,1.5-3.5,1.6c-1.5,0.1-2.6-0.2-3.3-0.9c-0.7-0.7-1.1-1.7-1.2-2.7   c-0.1-1.7,0.8-3,2.7-4.1c-0.9-1-1.4-2-1.5-2.9c-0.1-0.8,0.2-1.6,0.8-2.2s1.5-1,2.5-1c1-0.1,1.9,0.2,2.6,0.7c0.6,0.5,1,1.2,1,2.2   c0.1,1.4-0.6,2.5-2.1,3.3l2,2.3C103.6,21.1,103.9,20,104,18.8L104,18.8z M99,20.8c-0.8,0.6-1.2,1.4-1.1,2.2c0,0.5,0.2,1,0.6,1.4   c0.3,0.3,0.8,0.5,1.5,0.4c0.7,0,1.4-0.3,1.8-0.9L99,20.8L99,20.8z M100,18.1c0.7-0.5,1.1-1.1,1-1.9c0-0.3-0.1-0.5-0.3-0.7   s-0.4-0.3-0.8-0.3c-0.3,0-0.6,0.1-0.7,0.3C99,15.7,99,15.9,99,16.2C99,16.7,99.3,17.3,100,18.1L100,18.1z"
   id="path17" />
	<path
   class="st1"
   d="M112.8,13.3l2.9,0.2l-1,13.3l-2.9-0.2L112.8,13.3z"
   id="path18" />
	<path
   class="st1"
   d="M119.1,13.8l3.2,0.5l2,8.7l1.5-8.1l2.2,0.4l-2.3,13.1l-2.6-0.4l-2.3-10.2l-1.7,9.5l-2.2-0.4L119.1,13.8z"
   id="path19" />
	<path
   class="st1"
   d="M131.3,16.3l7.6,2.3l-0.6,2.2l-4.8-1.5l-1,3.3l3.6,1.1l-0.6,2.2l-3.6-1.1l-1.6,5l-2.8-0.8L131.3,16.3   L131.3,16.3z"
   id="path20" />
	<path
   class="st1"
   d="M140.9,19.4l3.8,1.7c0.7,0.3,1.2,0.6,1.7,0.8c0.4,0.2,0.7,0.6,0.9,1c0.3,0.5,0.4,1,0.4,1.7s-0.1,1.2-0.4,1.9   c-0.6,1.6-1.7,2.4-3.1,2.5l-0.1,6.3l-2.9-1.2l0.5-5.5l-1.4-0.6l-2.1,4.8l-2.7-1.1L140.9,19.4z M142.8,22.5l-1.5,3.4l1.1,0.5   c1,0.4,1.9,0.1,2.4-1c0.2-0.4,0.2-0.7,0.2-1.1c0-0.3-0.1-0.6-0.3-0.7c-0.2-0.2-0.4-0.3-0.8-0.5L142.8,22.5L142.8,22.5z"
   id="path21" />
	<path
   class="st1"
   d="M155.3,26.5l2.5,1.6L154,41.4l-2.5-1.6l0.9-2.7l-3.2-2l-2,2l-2.3-1.5L155.3,26.5L155.3,26.5z M153.1,34.9   l1.8-5.3l-3.9,3.9L153.1,34.9z"
   id="path22" />
	<path
   class="st1"
   d="M167.5,38.8L165,38c0.4-1,0.3-1.9-0.4-2.5c-0.3-0.3-0.6-0.4-1-0.3c-0.3,0-0.6,0.2-0.8,0.4   c-0.2,0.3-0.3,0.6-0.2,0.9c0.1,0.3,0.4,0.9,0.9,1.9c0.4,0.8,0.8,1.5,0.9,2c0.2,0.5,0.2,1.1,0.1,1.8c-0.1,0.6-0.4,1.1-0.8,1.8   c-0.8,0.9-1.8,1.5-2.9,1.6c-1.1,0.1-2.3-0.3-3.4-1.2c-1.9-1.6-2.3-3.4-1.2-5.7l2.5,1c-0.6,1.2-0.4,2.2,0.4,2.9   c0.4,0.3,0.8,0.5,1.2,0.4c0.4,0,0.7-0.2,1-0.5c0.2-0.2,0.3-0.5,0.3-0.8s-0.2-0.8-0.6-1.6c-0.5-0.9-0.9-1.7-1.1-2.2   c-0.2-0.5-0.2-1.1-0.2-1.8c0.1-0.6,0.3-1.2,0.8-1.8c0.7-0.9,1.7-1.5,2.7-1.6s2.1,0.2,3.1,1C167.8,35.2,168.3,36.9,167.5,38.8   L167.5,38.8z"
   id="path23" />
	<path
   class="st1"
   d="M170.8,38l5.8,5.9l-1.8,1.8l-1.9-2l-7.7,7.6l-2.1-2.1l7.7-7.6l-1.9-1.9L170.8,38z"
   id="path24" />
	<path
   class="st1"
   d="M178.1,45.5l2.6,3.2c0.5,0.6,0.8,1.1,1,1.6s0.3,0.8,0.3,1.4c0,0.5-0.1,1.1-0.4,1.7c-0.3,0.5-0.7,1-1.2,1.5   c-1.2,1-2.6,1.2-3.9,0.7l-3,5.5l-2-2.5l3-4.7l-0.9-1.1l-4.2,3.2l-1.8-2.3L178.1,45.5L178.1,45.5z M178.2,49.1l-2.9,2.3l0.8,1   c0.7,0.9,1.6,0.9,2.6,0.1c0.3-0.3,0.6-0.5,0.7-0.8c0.1-0.3,0.1-0.6,0.1-0.8c-0.1-0.2-0.2-0.5-0.5-0.8L178.2,49.1z"
   id="path25" />
	<path
   class="st1"
   d="M185.3,55.1l1.5,2.5l-6.5,3.8c-0.9,0.5-1.6,0.9-1.9,1.2c-0.3,0.3-0.5,0.6-0.5,1s0.1,0.7,0.3,1.1   s0.5,0.7,0.9,0.8c0.3,0.1,0.7,0.1,1.1,0s1-0.5,2-1l6.5-3.8l1.2,2.1l-6.4,3.8c-1.2,0.7-2.3,1.2-3,1.5c-0.7,0.2-1.5,0.2-2.3-0.2   c-0.8-0.3-1.6-1-2.2-2.1c-0.6-1-0.9-1.9-0.9-2.6s0.2-1.5,0.6-2.1s1.5-1.4,3-2.3L185.3,55.1z"
   id="path26" />
	<path
   class="st1"
   d="M186.5,75.6l0.9,2.6c-1.4,0.5-2.6,0.5-3.7,0.1c-1.1-0.4-2-1.2-2.5-2.5c-0.6-1.5-0.6-2.9,0.2-4.2   s2.2-2.3,4.1-3.1c2-0.8,3.6-1.1,5.2-0.8c1.5,0.3,2.5,1.2,3.1,2.8c1,2.6,0.1,4.6-2.9,6.2l-1.2-2.4c1.8-0.8,2.5-1.8,2-2.9   c-0.2-0.5-0.7-0.8-1.5-0.9c-0.7-0.1-2,0.2-3.6,0.9c-1.5,0.6-2.5,1.2-2.9,1.8c-0.4,0.5-0.5,1.1-0.2,1.8   C183.7,75.9,184.8,76.1,186.5,75.6L186.5,75.6z"
   id="path27" />
	<path
   class="st1"
   d="M195.7,76l2.4,7.9l-2.4,0.7l-0.8-2.6l-10.4,3.1l-0.8-2.8l10.4-3.1l-0.7-2.5L195.7,76L195.7,76z"
   id="path28" />
	<path
   class="st1"
   d="M198.6,86.1l0.5,2.9l-7.5,1.4c-1,0.2-1.8,0.4-2.2,0.5c-0.4,0.2-0.6,0.4-0.8,0.7s-0.2,0.7-0.1,1.1   c0.1,0.5,0.3,0.8,0.5,1c0.3,0.2,0.6,0.3,1,0.3s1.1-0.1,2.2-0.3l7.5-1.4l0.4,2.4l-7.4,1.4c-1.5,0.2-2.6,0.4-3.3,0.3   c-0.7,0-1.5-0.4-2.1-0.9c-0.6-0.6-1-1.5-1.2-2.7c-0.2-1.1-0.2-2.1,0.1-2.8c0.3-0.7,0.7-1.2,1.4-1.7s1.9-0.7,3.5-1L198.6,86.1   L198.6,86.1z"
   id="path29" />
	<path
   class="st1"
   d="M200.6,98.8l0.2,4.2c0,0.8,0,1.5,0,1.9c-0.1,0.4-0.2,0.8-0.5,1.4c-0.3,0.4-0.7,0.8-1.2,1   c-0.5,0.3-1.1,0.4-1.9,0.4c-1.7,0.1-2.8-0.5-3.5-1.8l-5.7,2.7l-0.1-3.2l5.2-2l-0.1-1.5l-5.3,0.2l-0.1-2.9L200.6,98.8L200.6,98.8z    M198.6,101.8l-3.7,0.2v1.2c0,1.1,0.7,1.7,2,1.7c0.4,0,0.8-0.1,1-0.3c0.3-0.2,0.4-0.4,0.5-0.6s0.1-0.5,0.1-1L198.6,101.8   L198.6,101.8z"
   id="path30" />
	<path
   class="st1"
   d="M200.9,110.8l-0.6,8.1l-2.3-0.2l0.4-5.1l-3.1-0.2l-0.3,4.1l-2.3-0.2l0.3-4.1l-3.2-0.2l-0.4,5.1l-2.4-0.2   l0.6-8.1L200.9,110.8L200.9,110.8z"
   id="path31" />
	<path
   class="st1"
   d="M49.9,168.6l-2.4-1c0.5-1,0.5-1.9-0.1-2.5c-0.3-0.3-0.6-0.4-0.9-0.5c-0.3,0-0.6,0.1-0.8,0.3   c-0.3,0.2-0.4,0.6-0.3,0.9c0.1,0.3,0.3,1,0.6,2c0.4,0.8,0.6,1.6,0.7,2.1c0.1,0.5,0.1,1.1-0.1,1.8c-0.2,0.6-0.5,1.1-1,1.7   c-0.8,0.8-1.9,1.2-3.1,1.2c-1.1-0.1-2.3-0.6-3.2-1.7c-1.7-1.8-1.9-3.6-0.6-5.8l2.3,1.4c-0.7,1.1-0.7,2.2,0,2.9   c0.3,0.4,0.7,0.5,1.1,0.6c0.4,0,0.7-0.1,1-0.4c0.2-0.2,0.4-0.5,0.4-0.8s-0.1-0.9-0.5-1.7c-0.4-0.9-0.7-1.8-0.8-2.3s-0.1-1.1,0-1.8   c0.2-0.6,0.5-1.1,1-1.7c0.8-0.8,1.9-1.2,2.9-1.2s2.1,0.5,2.9,1.4C50.7,164.9,51.1,166.7,49.9,168.6L49.9,168.6z"
   id="path32" />
	<path
   class="st1"
   d="M53.4,167.8l6.2,5.1l-1.5,1.7l-4.1-3.2l-2,2.4l3.1,2.5l-1.5,1.8l-3.1-2.5l-2.1,2.5l4.1,3.2l-1.5,1.9l-6.2-5.1   L53.4,167.8z"
   id="path33" />
	<path
   class="st1"
   d="M61.8,184.1l2.2,1.6c-0.8,1.1-1.9,2-3,2.3s-2.3,0.1-3.4-0.5c-1.4-0.8-2.1-2.1-2.2-3.5   c-0.1-1.5,0.4-3.1,1.6-4.9c1.1-1.9,2.4-3,3.7-3.6c1.4-0.6,2.8-0.4,4.2,0.4c2.4,1.5,2.7,3.7,1.1,6.8l-2.4-1.2c0.9-1.7,0.9-2.9,0-3.4   c-0.5-0.3-1.1-0.3-1.8,0s-1.5,1.2-2.4,2.8c-0.8,1.4-1.4,2.4-1.4,3.1c0,0.7,0.2,1.2,0.7,1.6C59.7,186,60.7,185.6,61.8,184.1   L61.8,184.1z"
   id="path34" />
	<path
   class="st1"
   d="M70,179.1l2.7,1.1l-3.1,7c-0.4,0.9-0.7,1.7-0.8,2.1c-0.1,0.4,0,0.8,0.2,1.1s0.5,0.6,0.9,0.7   c0.4,0.2,0.8,0.2,1.2,0.1c0.3-0.1,0.6-0.3,0.8-0.6s0.5-1,1-2l3.1-7l2.2,1l-3,6.9c-0.6,1.4-1.1,2.3-1.6,2.9c-0.4,0.6-1.1,1-2,1.1   c-0.8,0.2-1.9,0-3-0.4c-1-0.5-1.8-1-2.3-1.7c-0.4-0.6-0.6-1.4-0.6-2.1c0-0.7,0.4-2,1.1-3.5L70,179.1L70,179.1z"
   id="path35" />
	<path
   class="st1"
   d="M80.3,183.6l4.1,1.1c0.7,0.2,1.4,0.4,1.8,0.6s0.7,0.5,1,0.9s0.5,0.9,0.6,1.6c0.1,0.6,0,1.2-0.2,2   c-0.4,1.6-1.4,2.5-2.8,2.8l0.7,6.2l-3-0.9l-0.2-5.5l-1.4-0.4l-1.5,5l-2.8-0.8L80.3,183.6z M82.5,186.5l-1,3.5l1.2,0.3   c1,0.3,1.9-0.1,2.2-1.4c0.1-0.4,0.1-0.8,0.1-1.1c-0.1-0.3-0.2-0.5-0.4-0.7s-0.5-0.3-0.9-0.4L82.5,186.5z"
   id="path36" />
	<path
   class="st1"
   d="M90.7,186.3l2.9,0.5l-2.4,13.1l-2.9-0.5L90.7,186.3z"
   id="path37" />
	<path
   class="st1"
   d="M94.5,187.1l8.2,0.8l-0.2,2.5l-2.7-0.3l-1.1,10.7l-2.9-0.3l1.1-10.7l-2.6-0.3L94.5,187.1z"
   id="path38" />
	<path
   class="st1"
   d="M102.9,188.1h3.2l1.9,4.8l2-4.9h2.8l-3.6,7.7v5.6h-2.9v-5.6L102.9,188.1z"
   id="path39" />
	<path
   class="st1"
   d="M119.4,187l2.9-0.5l5.9,12.5l-2.9,0.5l-1.1-2.6l-3.6,0.6l-0.2,2.8l-2.6,0.4L119.4,187L119.4,187z M123.2,194.8   l-2.3-5.1l-0.3,5.6L123.2,194.8L123.2,194.8z"
   id="path40" />
	<path
   class="st1"
   d="M133,190.3l4.4-1.4l2.1,6.8l-1.1,0.4l-0.8-1.4c-0.3,1.4-1.1,2.2-2.6,2.6c-1.5,0.4-2.8,0.2-3.9-0.6   c-1.2-0.8-2.1-2.3-2.7-4.2c-0.6-2.1-0.7-3.8-0.3-5.3s1.5-2.5,3.1-3c2.6-0.8,4.5,0.2,5.7,3l-2.4,1.1c-0.7-1.6-1.6-2.3-2.6-2   c-0.6,0.2-1,0.6-1.2,1.4s0,2,0.5,3.6c0.4,1.6,0.9,2.5,1.6,3c0.5,0.5,1.1,0.6,1.9,0.4c1.1-0.3,1.5-1.4,0.9-3l-1.9,0.6L133,190.3   L133,190.3z"
   id="path41" />
	<path
   class="st1"
   d="M137.6,182.2l7.4-3.3l0.9,2.1l-4.7,2.2l1.2,2.8l3.6-1.7l0.9,2.1l-3.6,1.7l1.4,3l4.7-2.2l0.9,2.2l-7.4,3.3   L137.6,182.2L137.6,182.2z"
   id="path42" />
	<path
   class="st1"
   d="M145.9,178.2l2.8-1.7l7.3,5.2l-4.4-7l1.9-1.1l7,11.3l-2.2,1.4l-8.5-6l5.1,8.2l-1.9,1.1L145.9,178.2z"
   id="path43" />
	<path
   class="st1"
   d="M165.6,174.7l2.2-1.6c0.8,1.1,1.2,2.4,1.1,3.6c-0.1,1.2-0.6,2.3-1.7,3.1c-1.2,1-2.6,1.4-4.1,0.9   c-1.5-0.4-2.8-1.5-4.2-3c-1.4-1.7-2.1-3.2-2.2-4.7c-0.1-1.5,0.5-2.7,1.8-3.8c2.2-1.8,4.4-1.4,6.8,1.1l-2,1.9   c-1.4-1.5-2.4-1.9-3.3-1.1c-0.5,0.4-0.6,0.9-0.5,1.7c0.1,0.7,0.7,1.8,2,3.2c1,1.2,1.9,2,2.5,2.3s1.2,0.2,1.8-0.2   C166.6,177.3,166.5,176.1,165.6,174.7L165.6,174.7z"
   id="path44" />
	<path
   class="st1"
   d="M162.2,166.6l2.2-2.3l4.8,2l-2.1-4.8l2-2.1l3,8l4.1,3.8l-2,2.1l-4.1-3.8L162.2,166.6L162.2,166.6z"
   id="path45" />
	<path
   class="st2"
   d="M107,30.4c-42.3,0-76.6,34.3-76.6,76.6c0,19.9,7.6,38,20,51.7l0.2-2.6c-11.8-13.7-18.4-30.9-18.4-49.2   C32.2,87,40,68.2,54.1,54C68.2,40,87,32.2,107,32.2c19.9,0,38.7,7.8,52.9,21.9S181.8,87,181.8,107s-7.8,38.7-21.9,52.9   C145.8,174,127,181.8,107,181.8c-18.2,0-35.3-6.4-48.9-18.3l-1.4,1.4c13.5,11.7,31.1,18.8,50.3,18.8c42.3,0,76.6-34.3,76.6-76.5   C183.7,64.7,149.4,30.4,107,30.4z"
   id="path46" />
	<path
   class="st3"
   d="M22.8,126.9l-1.9,0.6c2.7,11.2,7.5,21.7,14,30.8l1.7-1C30.1,148.2,25.4,137.9,22.8,126.9L22.8,126.9z    M191.4,126.9c-2.6,11.1-7.4,21.3-13.8,30.3l1.7,1c6.5-9.1,11.3-19.5,14-30.8L191.4,126.9z"
   id="path47" />
	<path
   class="st3"
   d="M18.4,128.3l-1.9,0.6c2.8,11.6,7.8,22.4,14.5,32l1.7-1C26,150.4,21.1,139.7,18.4,128.3L18.4,128.3z    M195.7,128.3c-2.7,11.5-7.7,22.1-14.3,31.5l1.7,1c6.8-9.5,11.7-20.4,14.5-32L195.7,128.3L195.7,128.3z"
   id="path48" />
	<path
   class="st3"
   d="M27,125.6l-1.9,0.6c2.6,10.9,7.2,20.9,13.5,29.7l1.7-1C34,146.1,29.5,136.3,27,125.6L27,125.6z M187.2,125.6   c-2.5,10.7-7.1,20.6-13.2,29.2l1.7,1c6.3-8.8,10.9-18.8,13.5-29.7L187.2,125.6L187.2,125.6z"
   id="path49" />
	<path
   class="st3"
   d="M116.4,135.2l6.9,3.3v5.4c-7.8,0.2-15.8,2.1-21.3,4.2c-2.5-2.9-4.8-5.9-6.8-9.1h4.6l0.8-14.6h4.3l0.8,14.6h3.2   v-3.6l7.4,3.5L116.4,135.2L116.4,135.2z M111.6,150.4c-0.8,0-1.6,0.9-1.6,2v3.4c1,0.8,2.1,1.7,3.1,2.5v-5.9   C113.2,151.3,112.4,150.4,111.6,150.4L111.6,150.4z M118.4,148.4c-0.8,0-1.6,0.9-1.6,2v10.5c1,0.6,2.1,1.4,3.1,2v-12.5   C119.9,149.3,119.3,148.4,118.4,148.4z M124.1,165c0.8,0.4,1.7,0.8,2.5,1.1c0.2-0.1,0.3-0.1,0.5-0.2v-38.3c0,0,0-0.1,0.1-0.1h0.7   c0,0,0.1,0,0.1,0.1v37.9c0.9-0.4,1.9-0.9,2.8-1.4v-38.4c0,0,0-0.1,0.1-0.1h0.7c0,0,0.1,0,0.1,0.1v38c0.9-0.5,1.9-1,2.8-1.6v-34.5   c0,0,0-0.1,0.1-0.1h0.7c0,0,0.1,0,0.1,0.1v34.1c1.1-0.7,2.2-1.5,3.2-2.2v-38h-14.3V165H124.1z M148.3,129.6h-2.1v-2.9   c0-0.2-0.1-0.3-0.1-0.5c-0.2-0.2-0.4-0.4-0.7-0.4s-0.6,0.2-0.7,0.4c-0.1,0.1-0.1,0.3-0.1,0.5v2.9h-2.1v3.6h-3.2V159   c4.7-3.4,8.9-7.3,12.6-11.6v-14.1h-3.4v-3.6L148.3,129.6L148.3,129.6z M152.4,146.4c2-2.4,3.7-4.9,5.4-7.6v-2.5h-5.4V146.4   L152.4,146.4z M144.8,96.6h-3.2l1.7-5.4L144.8,96.6z M144.8,96.6h-3.2l1.7-5.4L144.8,96.6z M168.1,86.3v15.9c0,1.7,0,3.2-0.2,4.9   H94.8c2.6-3.3,4.1-7.5,4.1-11.7c0-3.8-1.1-7.5-3.1-10.5c9-1.2,21-2.7,30.8-2.8c0.5,0,1,0,1.5,0C146.4,81.9,162.2,85,168.1,86.3   L168.1,86.3z M106.5,94.9c0-3.3,0.9-5,2.8-5c1.7,0,2.5,1,2.5,3.2l3.7-0.2c-0.4-3.9-2.4-5.9-6.2-5.9c-2.1,0-3.8,0.7-5,2.2   s-1.9,3.3-1.9,5.7c0,2.5,0.6,4.4,1.9,5.8c1.2,1.4,2.9,2.1,5,2.1c1.7,0,3-0.5,4.2-1.5s1.8-2.4,2.1-4.2l-3.5-0.1   c-0.3,2-1.2,2.9-2.7,2.9c-0.9,0-1.7-0.3-2.2-1C106.8,98.1,106.5,96.9,106.5,94.9z M121.4,87.2h-3.5v15.3h3.5V87.2z M135.7,97.6   c0-0.8-0.2-1.7-0.7-2.4c-0.5-0.7-1.1-1.2-1.9-1.6c-0.7-0.3-1.9-0.6-3.4-0.9c-0.9-0.2-1.6-0.4-1.8-0.6c-0.3-0.2-0.4-0.5-0.4-0.9   c0-0.9,0.7-1.4,2.1-1.4c1.4,0,2.2,0.6,2.6,1.8l3-1c-0.8-2.4-2.8-3.6-5.8-3.6c-1.7,0-3,0.4-4.1,1.4c-1,0.9-1.5,2.1-1.5,3.4   s0.4,2.4,1.2,3c0.8,0.7,2.2,1.2,4.2,1.7c1,0.2,1.8,0.4,2.1,0.7c0.4,0.2,0.5,0.6,0.5,1s-0.2,0.8-0.6,1.1c-0.4,0.3-1,0.5-1.9,0.5   c-1.7,0-2.7-0.7-3.1-2.2l-3.3,0.7c0.3,1.4,1,2.5,2.2,3.2c1.1,0.7,2.4,1,4.1,1c2.1,0,3.6-0.5,4.8-1.6   C135.2,100.2,135.7,99,135.7,97.6L135.7,97.6z M150.4,102.5l-4.8-15.3h-4.2l-4.9,15.3h3.1l0.9-3.1h5l0.9,3.1H150.4L150.4,102.5z    M143.2,91.2l1.6,5.4h-3.2L143.2,91.2z M144.8,96.6h-3.2l1.7-5.4L144.8,96.6z M144.8,96.6h-3.2l1.7-5.4L144.8,96.6z"
   id="path50" />
	<path
   class="st4"
   d="M105.9,126.3l-0.1-1.2c0.9,2,2.5,3.4,4.5,4.4l-0.1,0.5C108.4,129.2,106.8,127.9,105.9,126.3z M123.3,120.8   c-0.2-5.1-4.4-9-9.5-9s-9.6,4.3-9.6,9.6c0,0.7,0.1,1.5,0.3,2.2h0.5c-0.2-0.7-0.3-1.5-0.3-2.2c0-5,4.1-8.9,8.9-8.9   c5,0,8.9,4.1,8.9,8.9c0,3.6-2.2,6.8-5.3,8.2c0,0.2,0.1,0.3,0.2,0.5c2.9-1.2,5.1-3.9,5.6-7.3L123.3,120.8L123.3,120.8L123.3,120.8z    M121.5,121.2c0-4.3-3.4-7.7-7.7-7.7s-7.7,3.4-7.7,7.7c0,3,1.8,5.7,4.5,7c0-0.2,0.1-0.4,0.2-0.5c-2.4-1.1-4.1-3.5-4.1-6.3   c0-3.9,3.2-7.1,7.1-7.1c3.9,0,7.1,3.2,7.1,7.1c0,2.8-1.7,5.2-3.9,6.3c0,0.2,0.1,0.4,0.2,0.5C119.7,126.9,121.5,124.2,121.5,121.2z    M120,121.2c0-3.4-2.8-6.1-6.1-6.1c-3.4,0-6.1,2.8-6.1,6.1c0,2.4,1.4,4.5,3.3,5.5c0.1-0.2,0.1-0.4,0.2-0.6   c-1.8-0.9-2.9-2.8-2.9-4.9c0-3,2.5-5.5,5.5-5.5s5.5,2.5,5.5,5.5c0,2.1-1.1,3.9-2.9,4.9c0.1,0.2,0.1,0.4,0.2,0.6   C118.7,125.7,120,123.6,120,121.2L120,121.2z M118.8,121.2c0-2.7-2.2-4.9-5-4.9c-2.7,0-5,2.2-5,4.9c0,1.9,1,3.4,2.5,4.3   c0.1-0.2,0.1-0.4,0.2-0.6c-1.2-0.7-2.1-2.1-2.1-3.6c0-2.4,2-4.4,4.4-4.4s4.4,2,4.4,4.4c0,1.6-0.8,2.9-2,3.6   c0.1,0.2,0.1,0.4,0.2,0.6C117.8,124.6,118.8,123.1,118.8,121.2L118.8,121.2z M116.8,121.2c0-1.7-1.4-3.1-3-3.1c-1.7,0-3,1.4-3,3.1   c0,0.9,0.4,1.8,1,2.4c0.1-0.2,0.1-0.4,0.2-0.7c-0.4-0.4-0.6-1-0.6-1.7c0-1.4,1-2.4,2.4-2.4c1.2,0,2.4,1,2.4,2.4   c0,0.6-0.2,1.1-0.6,1.7c0.1,0.2,0.1,0.4,0.2,0.7C116.5,123,116.8,122.1,116.8,121.2L116.8,121.2z M117.8,121.2   c0-2.2-1.8-3.9-3.9-3.9s-3.9,1.8-3.9,3.9c0,1.4,0.7,2.6,1.8,3.3c0.1-0.2,0.1-0.4,0.2-0.6c-0.8-0.6-1.4-1.6-1.4-2.7   c0-1.9,1.5-3.3,3.3-3.3s3.3,1.5,3.3,3.3c0,1-0.5,2.1-1.4,2.6c0.1,0.2,0.1,0.4,0.2,0.6C117.1,123.8,117.8,122.5,117.8,121.2   L117.8,121.2z M148,109.8h-0.4c1.2,3.6,1.9,7.4,1.9,11.4c0,2.6-0.3,5.2-0.8,7.7h0.3v0.3c0.6-2.6,0.9-5.3,0.9-8   C149.8,117.2,149.2,113.4,148,109.8L148,109.8z M157.3,109.8h-0.4c0.9,3.6,1.5,7.5,1.5,11.4c0,5-0.8,9.9-2.4,14.4h0.4   c1.6-4.5,2.4-9.3,2.4-14.4C158.9,117.2,158.3,113.4,157.3,109.8L157.3,109.8z M140.4,109.8h-0.5c1.6,3.5,2.4,7.4,2.4,11.4   s-0.8,7.8-2.4,11.3h0.5c0.4-1,0.8-2.2,1.1-3.3v-0.3h0.1c0.7-2.5,1-5,1-7.7C142.7,117.1,141.8,113.3,140.4,109.8L140.4,109.8z    M92,126.8l-0.4,0.4c1.1,4.3,3.4,8,6.5,10.9h0.6C95.5,135.1,93.1,131.3,92,126.8z M133.4,109.8c1.9,3.2,3,7,3.1,10.9h0.4   c-0.1-3.9-1.1-7.7-3-10.9H133.4z M94.4,109.8h-0.5c-0.4,0.6-0.7,1.4-1,2.1v1.1C93.2,112,93.7,110.8,94.4,109.8L94.4,109.8z    M117.1,109.8h-6.5c-5,1.5-8.6,6-8.6,11.4c0,0.7,0.1,1.5,0.2,2.2h0.5c-0.1-0.7-0.2-1.5-0.2-2.2c0-6.2,5.1-11.3,11.3-11.3   s11.1,4.9,11.3,10.9h0.5C125.5,115.5,122,111.1,117.1,109.8L117.1,109.8z M109.4,132.2l0.1-0.5c-1.4-0.5-2.5-1.4-3.5-2.3v0.7   C107,131,108.2,131.7,109.4,132.2z M118.2,131.7c0,0.2,0.1,0.3,0.1,0.5c2-0.8,3.6-2.1,5-3.7v-0.8   C122.1,129.4,120.3,130.9,118.2,131.7z M119.1,134.6c0,0.2,0.1,0.3,0.1,0.5c1.6-0.6,2.9-1.4,4.2-2.4V132   C122,133,120.6,134,119.1,134.6z M106.3,133.9c0.6,0.4,1.4,0.7,2.1,1v-0.5c-0.7-0.3-1.5-0.6-2.1-1.1V133.9L106.3,133.9z M99,121.2   c0,1.7,0.3,3.3,0.8,4.9l0.1-1.5c-0.3-1-0.4-2.2-0.4-3.4c0-4.7,2.3-8.8,5.7-11.4h-0.8C101.1,112.5,99,116.6,99,121.2L99,121.2z    M128.2,120.8h0.5c-0.1-4.4-2.2-8.3-5.4-10.9h-0.8C125.8,112.4,128,116.3,128.2,120.8z M127.8,109.8c2.5,3,3.9,6.9,4.1,10.9h0.5   c-0.1-4.2-1.6-7.9-3.9-10.9H127.8z M95.8,121.2c0-4.4,1.6-8.3,4.1-11.4h-0.6c-2.5,3.1-3.9,7.1-3.9,11.4s1.6,8.4,4.1,11.6v-0.7   C97.3,129.1,95.8,125.2,95.8,121.2z M106.5,138.1h1.1c-0.4-0.1-0.7-0.3-1.1-0.4V138.1z M122.2,137.2l0.5,0.2   c0.2-0.1,0.4-0.2,0.6-0.3v-0.5C122.9,136.8,122.5,137,122.2,137.2z"
   id="path51" />
</g>
<g
   id="g93"
   style="fill:#ffffff;fill-opacity:1">
	<path
   class="st1"
   d="M274.6,49.7l9.1,0.6c-0.3,4.9-1.9,8.8-4.6,11.9c-2.8,3-6.4,4.6-10.9,4.6c-5.5,0-9.7-2-12.6-6.1   s-4.3-9.7-4.3-16.9s1.4-12.9,4.3-17s7.1-6.1,12.8-6.1c9.3,0,14.4,5.8,15.3,17.3l-9,0.7c-0.2-6.6-2.3-10-6.2-10   c-2.1,0-3.7,1.1-4.9,3.2c-1.2,2.1-1.8,6.3-1.8,12.5c0,5.5,0.6,9.3,1.7,11.4c1.1,2.1,2.8,3.1,5,3.1   C271.8,58.6,273.9,55.6,274.6,49.7z"
   id="path52"
   style="fill:#ffffff;fill-opacity:1" />
	<path
   class="st1"
   d="M283.3,21.2h10.8l6.3,16.3l6.8-16.3h9.6L304.4,47v18.9h-9.8V47L283.3,21.2z"
   id="path53"
   style="fill:#ffffff;fill-opacity:1" />
	<path
   class="st1"
   d="M319.3,21.2h15.3c3.6,0,6.3,0.3,8.1,0.9s3.4,1.8,4.6,3.7c1.2,1.9,1.9,4.3,1.9,7.2c0,5-2.1,8.2-6.4,9.6   c5.1,1.8,7.6,5.5,7.6,11c0,2.9-0.7,5.4-2.1,7.4s-3.1,3.3-5.1,4s-4.9,1-8.6,1h-15.3V21.2z M328.8,39.3h3.2c3.2,0,5.2-0.6,6-1.7   c0.8-1.1,1.2-2.4,1.2-3.9c0-1.4-0.4-2.6-1.2-3.6c-0.8-1.1-2.6-1.6-5.3-1.6h-3.9L328.8,39.3L328.8,39.3z M328.8,58.3h4.8   c4.5,0,6.8-1.9,6.8-5.8c0-2.2-0.6-3.7-1.7-4.6c-1.1-0.9-2.8-1.3-5.1-1.3h-4.8V58.3L328.8,58.3z"
   id="path54"
   style="fill:#ffffff;fill-opacity:1" />
	<path
   class="st1"
   d="M357.1,21.2h27.2v7.7h-17.4v10.4h13.5V47h-13.5v11h17.4v8h-27.2C357.1,66,357.1,21.2,357.1,21.2z"
   id="path55"
   style="fill:#ffffff;fill-opacity:1" />
	<path
   class="st1"
   d="M389.2,21.2h14.1c2.7,0,4.8,0.1,6.3,0.4c1.5,0.2,2.9,0.9,4.4,2s2.6,2.6,3.5,4.5c0.9,1.9,1.3,4,1.3,6.4   c0,5.6-2.1,9.5-6.3,11.8l8.2,19.6H410l-6-17.7h-4.9v17.7h-9.8V21.2H389.2z M399.1,28.4V41h4.3c3.9,0,5.8-2.2,5.8-6.5   c0-1.5-0.3-2.7-0.9-3.6c-0.6-1-1.2-1.6-2-1.9c-0.7-0.3-1.8-0.5-3.3-0.5h-3.9L399.1,28.4L399.1,28.4z"
   id="path56"
   style="fill:#ffffff;fill-opacity:1" />
	<path
   class="st1"
   d="M453.3,30.9l-8.1,3.1c-1.2-3.7-3.3-5.5-6.4-5.5c-1.4,0-2.6,0.4-3.4,1.2c-0.8,0.8-1.2,1.8-1.2,2.9   c0,1.3,0.5,2.3,1.5,3.1c1,0.7,3.1,1.7,6.3,3c2.9,1.1,5.2,2.1,6.8,3.2c1.7,1,3,2.5,4,4.3s1.5,3.9,1.5,6.3c0,4.2-1.4,7.6-4.3,10.3   s-6.7,4-11.6,4c-8.1,0-13.3-4.1-15.6-12.3l8.6-2.5c1.1,4.5,3.4,6.8,7.2,6.8c1.7,0,3.1-0.4,4.1-1.3c1.1-0.9,1.6-2.1,1.6-3.5   c0-1.1-0.4-2.1-1.1-2.9c-0.7-0.9-2.5-1.8-5.1-2.8c-3.4-1.2-6-2.3-7.7-3.3s-3.1-2.4-4.2-4.3c-1.1-1.9-1.6-4-1.6-6.3   c0-4,1.3-7.3,3.9-9.9c2.6-2.6,6-3.9,10.3-3.9C446.5,20.5,451.3,24,453.3,30.9z"
   id="path57"
   style="fill:#ffffff;fill-opacity:1" />
	<path
   class="st1"
   d="M460.3,21.2h27.2v7.7h-17.4v10.4h13.5V47h-13.5v11h17.4v8h-27.2V21.2z"
   id="path58"
   style="fill:#ffffff;fill-opacity:1" />
	<path
   class="st1"
   d="M514.2,49.7l9.1,0.6c-0.3,4.9-1.9,8.8-4.6,11.9c-2.8,3-6.4,4.6-10.9,4.6c-5.5,0-9.7-2-12.6-6.1   c-2.9-4.1-4.3-9.7-4.3-16.9s1.4-12.9,4.3-17c2.9-4.1,7.1-6.1,12.8-6.1c9.3,0,14.4,5.8,15.3,17.3l-9,0.7c-0.2-6.6-2.3-10-6.2-10   c-2.1,0-3.7,1.1-4.9,3.2s-1.8,6.3-1.8,12.5c0,5.5,0.6,9.3,1.7,11.4c1.1,2.1,2.8,3.1,5,3.1C511.4,58.6,513.5,55.6,514.2,49.7z"
   id="path59"
   style="fill:#ffffff;fill-opacity:1" />
	<path
   class="st1"
   d="M529.1,21.2h9.8v25.6c0,3.6,0.2,6.1,0.5,7.5c0.3,1.4,1,2.5,2,3.2c1.1,0.7,2.3,1.1,3.8,1.1   c1.6,0,2.9-0.4,3.9-1.2s1.6-1.9,1.8-3.2c0.2-1.3,0.3-3.8,0.3-7.4V21.2h8.2v25.2c0,5-0.3,8.8-0.9,11.3c-0.6,2.5-2,4.6-4.4,6.4   c-2.4,1.8-5.6,2.7-9.8,2.7c-3.9,0-7-0.6-9.2-1.9c-2.2-1.3-3.8-3.1-4.8-5.5c-0.9-2.4-1.4-6.5-1.4-12.5V21.2H529.1z"
   id="path60"
   style="fill:#ffffff;fill-opacity:1" />
	<path
   class="st1"
   d="M568,21.2h14.1c2.7,0,4.8,0.1,6.3,0.4c1.5,0.2,2.9,0.9,4.4,2s2.6,2.6,3.5,4.5s1.3,4,1.3,6.4   c0,5.6-2.1,9.5-6.3,11.8l8.2,19.6h-10.7l-6-17.7h-4.9v17.7h-9.8V21.2H568z M577.9,28.4V41h4.3c3.9,0,5.8-2.2,5.8-6.5   c0-1.5-0.3-2.7-0.9-3.6c-0.6-1-1.2-1.6-2-1.9c-0.7-0.3-1.8-0.5-3.3-0.5h-3.9V28.4z"
   id="path61"
   style="fill:#ffffff;fill-opacity:1" />
	<path
   class="st1"
   d="M604.6,21.2h9.8V66h-9.8V21.2z"
   id="path62"
   style="fill:#ffffff;fill-opacity:1" />
	<path
   class="st1"
   d="M617.9,21.2h27.9v8.4h-9.2V66h-9.8V29.6h-8.9V21.2z"
   id="path63"
   style="fill:#ffffff;fill-opacity:1" />
	<path
   class="st1"
   d="M647,21.2h10.8l6.3,16.3l6.8-16.3h9.6L668.1,47v18.9h-9.8V47L647,21.2z"
   id="path64"
   style="fill:#ffffff;fill-opacity:1" />
	<path
   class="st1"
   d="M725.6,40.3l7.3,1.3c-1.2,5.3-3.2,10.1-6.1,14.3c1.6,1.6,3.1,2.4,4.6,2.4c0.2,0,0.7,0,1.5-0.1v7.6   c-1.2,0.3-2.4,0.5-3.4,0.5c-3.1,0-6-1.4-8.7-4.2c-3.7,3-7.7,4.5-12.2,4.5c-4.9,0-8.6-1.3-10.9-4c-2.3-2.6-3.4-5.7-3.4-9.2   c0-5.8,3.4-10.1,10.2-12.9c-2.8-3.8-4.2-7.2-4.2-10c0-2.7,1.1-5,3.3-7s5.1-3,8.5-3c3.5,0,6.3,1,8.4,3.1c2.1,2.1,3.1,4.6,3.1,7.6   c0,4.5-2.6,8.1-7.7,10.8l6.2,8.2C723.6,47.9,724.7,44.6,725.6,40.3z M712.1,36.8c2.7-1.5,4-3.6,4-6.2c0-1-0.3-1.9-0.9-2.7   c-0.6-0.7-1.4-1.1-2.6-1.1c-1.1,0-2,0.3-2.6,1s-0.9,1.5-0.9,2.5C709.2,32,710.2,34.1,712.1,36.8z M708.3,45.7   c-3,1.8-4.6,4.2-4.6,7.2c0,1.9,0.6,3.4,1.7,4.6c1.1,1.2,2.7,1.8,4.7,1.8c2.4,0,4.5-0.9,6.3-2.6L708.3,45.7z"
   id="path65"
   style="fill:#ffffff;fill-opacity:1" />
	<path
   class="st1"
   d="M252.8,84.1h9.8v44.8h-9.8V84.1z"
   id="path66"
   style="fill:#ffffff;fill-opacity:1" />
	<path
   class="st1"
   d="M271.8,84.1h10.9l11.5,27.8V84.1h7.6v44.8H293l-13.7-32.4v32.4h-7.6V84.1H271.8z"
   id="path67"
   style="fill:#ffffff;fill-opacity:1" />
	<path
   class="st1"
   d="M311.1,84.1h26.6v7.7H321v11.7h12.9v7.7H321v17.7h-9.8V84.1H311.1z"
   id="path68"
   style="fill:#ffffff;fill-opacity:1" />
	<path
   class="st1"
   d="M341.9,84.1H356c2.7,0,4.8,0.1,6.3,0.4c1.5,0.2,2.9,0.9,4.4,2s2.6,2.6,3.5,4.5s1.3,4,1.3,6.4   c0,5.6-2.1,9.5-6.3,11.8l8.2,19.6h-10.7l-6-17.7h-4.9v17.7H342L341.9,84.1L341.9,84.1z M351.8,91.3v12.6h4.3c3.9,0,5.8-2.2,5.8-6.5   c0-1.5-0.3-2.7-0.9-3.6c-0.6-1-1.2-1.6-2-1.9c-0.7-0.3-1.8-0.5-3.3-0.5L351.8,91.3L351.8,91.3z"
   id="path69"
   style="fill:#ffffff;fill-opacity:1" />
	<path
   class="st1"
   d="M387.5,84.1h9.9l12.8,44.8h-10.1l-2.2-9.2h-12.6l-2.2,9.2H374L387.5,84.1z M396.1,111.9l-4.5-18.3l-4.4,18.3   C387.2,111.9,396.1,111.9,396.1,111.9z"
   id="path70"
   style="fill:#ffffff;fill-opacity:1" />
	<path
   class="st1"
   d="M442.5,93.8l-8.1,3.1c-1.2-3.7-3.3-5.5-6.4-5.5c-1.4,0-2.6,0.4-3.4,1.2c-0.8,0.8-1.2,1.8-1.2,2.9   c0,1.3,0.5,2.3,1.5,3.1c1,0.7,3.1,1.7,6.3,3c2.9,1.1,5.2,2.1,6.8,3.2c1.7,1,3,2.5,4,4.3s1.5,3.9,1.5,6.3c0,4.2-1.4,7.6-4.3,10.3   c-2.9,2.7-6.7,4-11.6,4c-8.1,0-13.3-4.1-15.6-12.3l8.6-2.5c1.1,4.5,3.4,6.8,7.2,6.8c1.7,0,3.1-0.4,4.1-1.3c1.1-0.9,1.6-2.1,1.6-3.5   c0-1.1-0.4-2.1-1.1-2.9c-0.7-0.9-2.5-1.8-5.1-2.8c-3.4-1.2-6-2.3-7.7-3.3c-1.7-1-3.1-2.4-4.2-4.3s-1.6-4-1.6-6.3   c0-4,1.3-7.3,3.9-9.9s6-3.9,10.3-3.9C435.7,83.4,440.6,86.9,442.5,93.8z"
   id="path71"
   style="fill:#ffffff;fill-opacity:1" />
	<path
   class="st1"
   d="M447.1,84.1H475v8.4h-9.2v36.4H456V92.5h-8.9V84.1z"
   id="path72"
   style="fill:#ffffff;fill-opacity:1" />
	<path
   class="st1"
   d="M479.5,84.1h14.1c2.7,0,4.8,0.1,6.3,0.4c1.5,0.2,2.9,0.9,4.4,2s2.6,2.6,3.5,4.5s1.3,4,1.3,6.4   c0,5.6-2.1,9.5-6.3,11.8l8.2,19.6h-10.7l-6-17.7h-4.9v17.7h-9.8V84.1H479.5z M489.3,91.3v12.6h4.3c3.9,0,5.8-2.2,5.8-6.5   c0-1.5-0.3-2.7-0.9-3.6c-0.6-1-1.2-1.6-2-1.9c-0.7-0.3-1.8-0.5-3.3-0.5L489.3,91.3L489.3,91.3z"
   id="path73"
   style="fill:#ffffff;fill-opacity:1" />
	<path
   class="st1"
   d="M516.8,84.1h9.8v25.6c0,3.6,0.2,6.1,0.5,7.5c0.3,1.4,1,2.5,2,3.2c1.1,0.7,2.3,1.1,3.8,1.1   c1.6,0,2.9-0.4,3.9-1.2c1-0.8,1.6-1.9,1.8-3.2c0.2-1.3,0.3-3.8,0.3-7.4V84.1h8.2v25.2c0,5-0.3,8.8-0.9,11.3c-0.6,2.5-2,4.6-4.4,6.4   c-2.4,1.8-5.6,2.7-9.8,2.7c-3.9,0-7-0.6-9.2-1.9s-3.8-3.1-4.8-5.5c-0.9-2.4-1.4-6.5-1.4-12.5V84.1H516.8z"
   id="path74"
   style="fill:#ffffff;fill-opacity:1" />
	<path
   class="st1"
   d="M578.6,112.6l9.1,0.6c-0.3,4.9-1.9,8.8-4.6,11.9c-2.8,3-6.4,4.6-10.9,4.6c-5.5,0-9.7-2-12.6-6.1   c-2.9-4.1-4.3-9.7-4.3-16.9c0-7.2,1.4-12.9,4.3-17c2.9-4.1,7.1-6.1,12.8-6.1c9.3,0,14.4,5.8,15.3,17.3l-9,0.7   c-0.2-6.6-2.3-10-6.2-10c-2.1,0-3.7,1.1-4.9,3.2s-1.8,6.3-1.8,12.5c0,5.5,0.6,9.3,1.7,11.4s2.8,3.1,5,3.1   C575.8,121.6,578,118.6,578.6,112.6z"
   id="path75"
   style="fill:#ffffff;fill-opacity:1" />
	<path
   class="st1"
   d="M589.5,84.1h27.9v8.4h-9.2v36.4h-9.8V92.5h-8.9V84.1z"
   id="path76"
   style="fill:#ffffff;fill-opacity:1" />
	<path
   class="st1"
   d="M622,84.1h9.8v25.6c0,3.6,0.2,6.1,0.5,7.5s1,2.5,2,3.2c1.1,0.7,2.3,1.1,3.8,1.1c1.6,0,2.9-0.4,3.9-1.2   c1-0.8,1.6-1.9,1.8-3.2c0.2-1.3,0.3-3.8,0.3-7.4V84.1h8.2v25.2c0,5-0.3,8.8-0.9,11.3s-2,4.6-4.4,6.4c-2.4,1.8-5.6,2.7-9.8,2.7   c-3.9,0-7-0.6-9.2-1.9c-2.2-1.3-3.8-3.1-4.8-5.5c-0.9-2.4-1.4-6.5-1.4-12.5V84.1H622z"
   id="path77"
   style="fill:#ffffff;fill-opacity:1" />
	<path
   class="st1"
   d="M662,84.1h14.1c2.7,0,4.8,0.1,6.3,0.4c1.5,0.2,2.9,0.9,4.4,2s2.6,2.6,3.5,4.5s1.3,4,1.3,6.4   c0,5.6-2.1,9.5-6.3,11.8l8.2,19.6h-10.7l-6-17.7h-4.9v17.7h-9.8V84.1H662z M671.8,91.3v12.6h4.3c3.9,0,5.8-2.2,5.8-6.5   c0-1.5-0.3-2.7-0.9-3.6c-0.6-1-1.2-1.6-2-1.9c-0.7-0.3-1.8-0.5-3.3-0.5L671.8,91.3L671.8,91.3z"
   id="path78"
   style="fill:#ffffff;fill-opacity:1" />
	<path
   class="st1"
   d="M699.7,84.1h27.2v7.7h-17.4v10.4H723v7.7h-13.5v11h17.4v8h-27.2V84.1z"
   id="path79"
   style="fill:#ffffff;fill-opacity:1" />
	<path
   class="st1"
   d="M280.2,157.8l-8.1,3.1c-1.2-3.7-3.3-5.5-6.4-5.5c-1.4,0-2.6,0.4-3.4,1.2c-0.8,0.8-1.2,1.8-1.2,2.9   c0,1.3,0.5,2.3,1.5,3.1c1,0.7,3.1,1.7,6.3,3c2.9,1.1,5.2,2.1,6.8,3.2c1.7,1,3,2.5,4,4.3s1.5,3.9,1.5,6.3c0,4.2-1.4,7.6-4.3,10.3   c-2.9,2.7-6.7,4-11.6,4c-8.1,0-13.3-4.1-15.6-12.3l8.6-2.5c1.1,4.5,3.4,6.8,7.2,6.8c1.7,0,3.1-0.4,4.1-1.3c1.1-0.9,1.6-2.1,1.6-3.5   c0-1.1-0.4-2.1-1.1-2.9c-0.7-0.9-2.5-1.8-5.1-2.8c-3.4-1.2-6-2.3-7.7-3.3c-1.7-1-3.1-2.4-4.2-4.3c-1.1-1.9-1.6-4-1.6-6.3   c0-4,1.3-7.3,3.9-9.9c2.6-2.6,6-3.9,10.3-3.9C273.4,147.4,278.3,150.9,280.2,157.8z"
   id="path80"
   style="fill:#ffffff;fill-opacity:1" />
	<path
   class="st1"
   d="M287.2,148.1h27.2v7.7H297v10.3h13.5v7.7H297v11h17.4v8h-27.2V148.1z"
   id="path81"
   style="fill:#ffffff;fill-opacity:1" />
	<path
   class="st1"
   d="M341.1,176.5l9.1,0.6c-0.3,4.9-1.9,8.8-4.6,11.9c-2.8,3-6.4,4.6-10.9,4.6c-5.5,0-9.7-2-12.6-6.1   s-4.3-9.7-4.3-16.9s1.4-12.9,4.3-17s7.1-6.1,12.8-6.1c9.3,0,14.4,5.8,15.3,17.3l-9,0.7c-0.2-6.6-2.3-10-6.2-10   c-2.1,0-3.7,1.1-4.9,3.2c-1.2,2.1-1.8,6.3-1.8,12.5c0,5.5,0.6,9.3,1.7,11.4c1.1,2.1,2.8,3.1,5,3.1   C338.3,185.5,340.5,182.5,341.1,176.5z"
   id="path82"
   style="fill:#ffffff;fill-opacity:1" />
	<path
   class="st1"
   d="M356,148.1h9.8v25.6c0,3.6,0.2,6.1,0.5,7.5s1,2.5,2,3.2c1.1,0.7,2.3,1.1,3.8,1.1c1.6,0,2.9-0.4,3.9-1.2   s1.6-1.9,1.8-3.2s0.3-3.8,0.3-7.4v-25.6h8.2v25.2c0,5-0.3,8.8-0.9,11.3s-2,4.6-4.4,6.4c-2.4,1.8-5.6,2.7-9.8,2.7   c-3.9,0-7-0.6-9.2-1.9c-2.2-1.3-3.8-3.1-4.8-5.5c-0.9-2.4-1.4-6.5-1.4-12.5v-25.7L356,148.1L356,148.1z"
   id="path83"
   style="fill:#ffffff;fill-opacity:1" />
	<path
   class="st1"
   d="M394.9,148.1H409c2.7,0,4.8,0.1,6.3,0.4c1.5,0.2,2.9,0.9,4.4,2s2.6,2.6,3.5,4.5s1.3,4,1.3,6.4   c0,5.6-2.1,9.5-6.3,11.8l8.2,19.6h-10.7l-6-17.7h-4.9v17.7H395L394.9,148.1L394.9,148.1z M404.8,155.3v12.6h4.3   c3.9,0,5.8-2.2,5.8-6.5c0-1.5-0.3-2.7-0.9-3.6c-0.6-1-1.2-1.6-2-1.9c-0.7-0.3-1.8-0.5-3.3-0.5h-3.9L404.8,155.3L404.8,155.3z"
   id="path84"
   style="fill:#ffffff;fill-opacity:1" />
	<path
   class="st1"
   d="M431.6,148.1h9.8v44.8h-9.8V148.1z"
   id="path85"
   style="fill:#ffffff;fill-opacity:1" />
	<path
   class="st1"
   d="M444.9,148.1h27.9v8.4h-9.2v36.4h-9.8v-36.4h-8.9V148.1z"
   id="path86"
   style="fill:#ffffff;fill-opacity:1" />
	<path
   class="st1"
   d="M474,148.1h10.8l6.3,16.3l6.8-16.3h9.6l-12.4,25.8v18.9h-9.8v-18.9L474,148.1z"
   id="path87"
   style="fill:#ffffff;fill-opacity:1" />
	<path
   class="st1"
   d="M530.4,148.1h9.9l12.8,44.8H543l-2.2-9.2h-12.6l-2.2,9.2h-9.1L530.4,148.1z M538.9,175.9l-4.5-18.3l-4.4,18.3   H538.9z"
   id="path88"
   style="fill:#ffffff;fill-opacity:1" />
	<path
   class="st1"
   d="M571.9,169h15.6v23.9h-4.2l-1.3-5.1c-2.4,3.9-6,5.8-10.8,5.8c-5.1,0-9.1-2-12.1-6s-4.5-9.4-4.5-16.2   c0-7.4,1.5-13.2,4.4-17.5c3-4.3,7.3-6.5,13.1-6.5c9.2,0,14.3,5.1,15.4,15.4l-8.9,1.4c-0.6-5.9-2.7-8.8-6.4-8.8   c-2.2,0-4,1.1-5.3,3.2c-1.3,2.2-2,6.3-2,12.3c0,5.4,0.6,9.1,1.9,11.3s3.2,3.3,5.7,3.3c4,0,6-3,6-8.9h-6.7L571.9,169L571.9,169z"
   id="path89"
   style="fill:#ffffff;fill-opacity:1" />
	<path
   class="st1"
   d="M595.2,148.1h27.3v7.7h-17.4v10.3h13.5v7.7h-13.5v11h17.4v8h-27.3V148.1L595.2,148.1z"
   id="path90"
   style="fill:#ffffff;fill-opacity:1" />
	<path
   class="st1"
   d="M626.9,148.1h10.9l11.5,27.8v-27.8h7.6v44.8h-8.8l-13.7-32.4v32.4h-7.6L626.9,148.1L626.9,148.1z"
   id="path91"
   style="fill:#ffffff;fill-opacity:1" />
	<path
   class="st1"
   d="M686.9,176.5l9.1,0.6c-0.3,4.9-1.9,8.8-4.6,11.9c-2.8,3-6.4,4.6-10.9,4.6c-5.5,0-9.7-2-12.6-6.1   s-4.3-9.7-4.3-16.9s1.4-12.9,4.3-17s7.1-6.1,12.8-6.1c9.3,0,14.4,5.8,15.3,17.3l-9,0.7c-0.2-6.6-2.3-10-6.2-10   c-2.1,0-3.7,1.1-4.9,3.2c-1.2,2.1-1.8,6.3-1.8,12.5c0,5.5,0.6,9.3,1.7,11.4c1.1,2.1,2.8,3.1,5,3.1   C684.2,185.5,686.3,182.5,686.9,176.5z"
   id="path92"
   style="fill:#ffffff;fill-opacity:1" />
	<path
   class="st1"
   d="M695.7,148.1h10.8l6.3,16.3l6.8-16.3h9.6l-12.4,25.8v18.9H707v-18.9L695.7,148.1z"
   id="path93"
   style="fill:#ffffff;fill-opacity:1" />
</g>
</svg>
