<?xml version="1.0" encoding="UTF-8" standalone="no"?>
<!-- Generator: Adobe Illustrator 24.1.0, SVG Export Plug-In . SVG Version: 6.00 Build 0)  -->

<svg
   version="1.1"
   id="Layer_1"
   x="0px"
   y="0px"
   viewBox="0 0 208.99999 208.7"
   xml:space="preserve"
   width="209"
   height="208.7"
   xmlns="http://www.w3.org/2000/svg"
   xmlns:svg="http://www.w3.org/2000/svg"><defs
   id="defs93" />
<style
   type="text/css"
   id="style1">
	.st0{fill:#FFFFFF;}
	.st1{fill:#005288;}
	.st2{fill:#C41230;}
	.st3{fill:#0078AE;}
	.st4{fill:#5E9732;}
</style>
<g
   id="g1"
   transform="translate(-2.6,-2.6)"><path
     class="st0"
     d="m 107.22656,210.99423 c 57.56814,0 104.22657,-46.63824 104.22657,-104.18145 C 211.45313,49.269558 164.7947,2.7286816 107.22656,2.7286816 49.658433,2.7286816 3,49.366924 3,106.91014 3,164.45336 49.658433,210.99423 107.22656,210.99423 Z"
     id="path1"
     style="fill:#ffffff;fill-opacity:1;stroke-width:0.97387" /><path
     class="st1"
     d="M 107,2.6 C 49.5,2.6 2.6,49.4 2.6,107 c 0,57.6 46.9,104.3 104.5,104.3 57.5,0 104.5,-46.8 104.5,-104.4 C 211.5,49.4 164.7,2.6 107,2.6 Z m 0,202.6 C 52.8,205.2 8.8,161.2 8.8,107 8.8,52.9 52.9,8.9 107,8.9 c 54.2,0 98.2,44 98.2,98.2 0.1,54.1 -44,98.1 -98.2,98.1 z"
     id="path2" /><path
     class="st1"
     d="m 113,145.8 c 3.3,-0.6 6.9,-1 10.3,-1.1 v 0.8 c -8.5,0.4 -14.9,2.8 -19.1,5 -0.6,-0.6 -1.1,-1.2 -1.7,-1.9 3,-1 6.5,-2.1 10.5,-2.8 z m -8.3,5.2 c 1.5,1.5 2.9,2.9 4.5,4.3 v -2.8 c 0,-1.5 1,-2.7 2.3,-2.7 1.3,0 2.3,1.2 2.3,2.7 v 6.4 c 0.7,0.5 1.5,1 2.2,1.6 v -10 c 0,-1.5 1,-2.7 2.3,-2.7 1.3,0 2.3,1.2 2.3,2.7 v 12.9 c 0.8,0.5 1.8,0.9 2.6,1.4 v -18.5 c -8.2,0.2 -14.3,2.5 -18.5,4.7 z m 5.9,-15.9 1.6,0.7 0.8,-0.5 -2.1,-1.2 z m 0.9,-3.2 1.7,-1.4 -1,-0.8 z m 0.8,-3.1 1.6,1.2 1.6,-1.2 -1.6,-5.9 z m 3.4,7 v -1 l -0.8,0.5 z m -2.5,0.6 2.5,1.2 V 137 l -1.8,-1 z m 2.6,-6.7 -1,0.8 1.7,1.2 z m -1.9,5.1 2.7,-1.6 -2.7,-2.1 -2.7,2.1 z m 2.6,-0.4 0.2,0.1 0.3,0.2 -0.1,-0.5 z m -1.8,-80.5 -2.3,1.2 -1.2,1.8 c -0.7,-0.3 -2.6,-1.1 -4.4,-1.8 -1.8,-0.6 -4.2,-1.5 -4.2,-1.5 4.6,0 5.6,0.1 5.8,0.1 v 0 c 0.2,0.1 1.3,0.1 6.3,0.2 z m 63.5,53.1 c 0,39.3 -31.9,71.1 -71.1,71.1 -8.2,0 -16.1,-1.4 -23.5,-3.9 0,0 13.7,-10.9 19.5,-16.8 C 99,153.6 95.4,149.3 92.2,144.6 89.7,141 87.5,137 85.8,133.1 l -34.1,34.1 1.1,-13.8 c -10.6,-12.5 -17,-28.6 -17,-46.1 0,-39.3 31.9,-71.1 71.1,-71.1 39.5,-0.3 71.3,31.5 71.3,70.8 z M 71.4,49.2 87.3,57.7 78.2,67 85,66.7 79.4,75.9 c 0.1,0 0.2,0 0.4,0 4.2,0 8.1,1.4 11.2,3.6 7.3,-1.1 17.8,-2.5 27.5,-3.1 0,0 -0.1,-0.1 -0.1,-0.2 -0.1,-0.3 -0.3,-0.6 -0.4,-0.8 -0.2,-0.4 -0.4,-0.9 -0.7,-1.4 -0.3,-0.6 -0.6,-1.1 -0.8,-1.8 -0.3,-0.7 -0.7,-1.4 -1,-2.1 -0.4,-0.8 -0.8,-1.6 -1.1,-2.4 0,0 1.7,-2.4 5,-3.3 3,-0.9 6.4,0 8.4,2.6 0.6,0.8 1.1,1.8 1.1,2.8 0,0 5.2,-7.9 3.9,-12.4 -1.2,-4.5 -11.2,-4.1 -11.2,-4.1 h -3.5 l -3,-3.2 c -0.8,-0.8 -1.9,-1.4 -3,-1.4 z m -13.1,66.6 8,-8.5 v -8.5 l -7.3,7.7 z m 24.6,-11.4 c 3.8,-1.4 6.4,-5.1 6.4,-9.1 0,-0.1 0,-0.2 0,-0.4 -1.2,-0.2 -2.4,-1 -2.8,-2.3 h -6.2 c -0.2,0.6 -0.6,1 -1,1.5 -0.6,0.5 -1.4,0.8 -2.2,0.8 -1.5,0 -2.8,-0.9 -3.2,-2.3 h -1.7 l -3.4,3.6 v 11.9 L 58,119.5 57.2,130.2 68,118.8 c -0.2,-0.4 -0.4,-1 -0.4,-1.6 0,-1.9 1.6,-3.4 3.4,-3.4 1.8,0 3.4,1.6 3.4,3.4 0,1.9 -1.6,3.4 -3.4,3.4 -0.5,0 -0.9,-0.1 -1.4,-0.3 l -12.8,13.5 -0.9,10.7 11.9,-12.6 c -0.2,-0.4 -0.4,-1 -0.4,-1.6 0,-1.9 1.6,-3.4 3.4,-3.4 1.8,0 3.4,1.6 3.4,3.4 0,1.8 -1.6,3.4 -3.4,3.4 -0.5,0 -0.9,-0.1 -1.4,-0.3 l -14,15 -1,12.4 L 82,133.2 V 104.6 Z M 71,131.6 c 0.6,0 1,-0.5 1,-1 0,-0.6 -0.5,-1 -1,-1 -0.6,0 -1,0.5 -1,1 -0.1,0.5 0.4,1 1,1 z m 0,-13.2 c 0.6,0 1,-0.5 1,-1 0,-0.5 -0.5,-1 -1,-1 -0.6,0 -1,0.5 -1,1 0,0.5 0.4,1 1,1 z m 6.1,-25.9 c 0.6,0 1,-0.5 1,-1 0,-0.6 -0.5,-1 -1,-1 -0.6,0 -1,0.5 -1,1 0,0.6 0.4,1 1,1 z m 12.7,0 c 0.6,0 1,-0.5 1,-1 0,-0.6 -0.5,-1 -1,-1 -0.6,0 -1,0.5 -1,1 0,0.6 0.5,1 1,1 z m 0.7,32.4 v -16.7 c 3.6,-3.1 6,-7.8 6,-13 0,-5.2 -2.4,-10 -6.1,-13.1 -0.8,-0.7 -1.9,-1.4 -2.8,-1.9 -2.4,-1.2 -5.1,-2 -7.9,-2 -6,0 -11.3,3.1 -14.3,7.9 -0.2,0.4 -5.3,9 -5.3,9 l -0.6,7.5 11.7,-12.4 h 2.7 c 0.5,-1.4 1.8,-2.3 3.2,-2.3 0.8,0 1.6,0.3 2.2,0.8 0.4,0.4 0.8,0.9 1,1.5 h 6.2 c 0.5,-1.4 1.8,-2.3 3.2,-2.3 1.9,0 3.4,1.6 3.4,3.4 0,1.2 -0.6,2.3 -1.6,2.9 0,0.3 0,0.6 0,0.8 0,4.8 -2.9,9.1 -7.2,11 v 25 z m 80.8,-22.7 V 83.6 c 0,0 -19.4,-5 -43.4,-5 -0.5,0 -1,0 -1.6,0 -10.8,0.1 -24,1.8 -33.2,3.1 3.4,3.4 5.6,8.2 5.6,13.5 0,5.3 -2.2,10.3 -6,13.9 v 0.6 h 74.9 c -1.1,10 -4.3,19.4 -9.2,27.8 v -2 h -6.1 v -3.1 h -3.4 v -3.6 h -2.1 v -2.2 c 0,-0.3 -0.1,-0.6 -0.2,-0.8 -0.3,-0.5 -0.8,-0.7 -1.4,-0.7 -0.5,0 -1,0.3 -1.4,0.7 -0.2,0.3 -0.3,0.6 -0.3,0.9 v 2.2 h -2.1 v 3.6 h -2.5 v -11.7 h -15.8 v 16.9 l -4.8,-2.3 c -1.2,-4.4 -2.6,-8.7 -3.8,-13.1 0.3,-0.2 0.6,-0.6 0.6,-1.1 0,-0.7 -0.6,-1.4 -1.4,-1.4 -0.7,0 -1.4,0.6 -1.4,1.4 0,0.5 0.2,0.8 0.6,1.1 -1.1,4.1 -2.4,8.1 -3.6,12.3 h -0.1 l -1,-0.5 v 4.1 h -1.9 l -0.8,-14 v -0.7 h -5.6 v 0.7 l -0.8,14 h -4.4 c -1.8,-3 -3.4,-6.1 -4.7,-9.5 l -2.5,2.5 c 7.5,17.3 21.5,31.3 38.8,38.6 26.6,-11.2 45.1,-37.3 45,-67.6 z"
     id="path3" /><path
     class="st1"
     d="m 21.8,111.6 v -2.7 c 1.5,0 2.6,0.3 3.6,1 0.9,0.7 1.6,1.8 1.7,3.1 0.1,1.7 -0.4,2.9 -1.6,3.8 -1.1,0.9 -2.8,1.6 -4.9,1.7 -2.2,0.2 -3.8,-0.1 -5.1,-0.8 -1.2,-0.7 -2,-2 -2.1,-3.6 -0.2,-2.8 1.4,-4.4 4.8,-4.9 l 0.4,2.6 c -2,0.2 -2.9,0.9 -2.8,2.1 0,0.6 0.4,1 1,1.4 0.6,0.3 1.9,0.4 3.7,0.2 1.7,-0.1 2.7,-0.4 3.3,-0.7 0.6,-0.4 0.8,-0.9 0.8,-1.6 -0.1,-0.9 -1.1,-1.6 -2.8,-1.6 z"
     id="path4" /><path
     class="st1"
     d="m 13.2,108.5 0.1,-3.2 4.9,-1.7 -4.8,-2.2 0.1,-2.8 7.6,3.9 5.6,0.2 -0.1,2.9 -5.6,-0.2 z"
     id="path5" /><path
     class="st1"
     d="m 13.7,96.8 0.7,-4.5 c 0.2,-1 0.4,-1.9 0.6,-2.4 0.2,-0.5 0.7,-0.9 1.4,-1.1 0.6,-0.3 1.4,-0.3 2.2,-0.2 1.5,0.2 2.3,1 2.5,2.3 0.7,-1.5 2,-2 3.5,-1.8 0.8,0.1 1.6,0.4 2.1,0.9 0.5,0.5 0.8,1 0.9,1.7 0.1,0.6 0.1,1.5 -0.1,2.6 l -0.7,4.5 z m 5.7,-2 0.1,-0.9 c 0.1,-0.9 0.1,-1.6 -0.2,-1.9 -0.3,-0.3 -0.6,-0.5 -1,-0.5 -0.4,-0.1 -0.7,0 -1.1,0.2 -0.3,0.2 -0.6,0.7 -0.7,1.5 l -0.2,1.1 z m 5.6,0.8 0.2,-1.5 c 0.2,-1.4 -0.3,-2.1 -1.5,-2.3 -0.6,-0.1 -1.1,0 -1.5,0.3 -0.3,0.3 -0.5,0.7 -0.6,1.5 l -0.2,1.5 z"
     id="path6" /><path
     class="st1"
     d="m 15.9,84.5 2.2,-7.8 2.2,0.6 -1.5,5 3.1,0.8 1.1,-3.8 2.2,0.6 -1.1,3.8 3.1,0.9 1.5,-5 2.3,0.6 -2.2,7.8 z"
     id="path7" /><path
     class="st1"
     d="m 19,74.3 1.7,-3.8 c 0.3,-0.7 0.6,-1.4 0.8,-1.7 0.2,-0.4 0.6,-0.7 1,-0.9 0.5,-0.3 1,-0.4 1.7,-0.4 0.7,0 1.2,0.1 1.9,0.4 1.6,0.6 2.4,1.7 2.5,3.1 h 6.3 l -1.2,2.9 -5.5,-0.5 -0.5,1.4 4.9,2.1 -1.2,2.7 z m 3.1,-1.9 3.4,1.5 0.5,-1.1 c 0.4,-1 0.1,-1.9 -1.1,-2.3 -0.4,-0.2 -0.7,-0.2 -1.1,-0.2 -0.3,0 -0.6,0.1 -0.7,0.3 -0.2,0.2 -0.3,0.4 -0.5,0.8 z"
     id="path8" /><path
     class="st1"
     d="m 30.6,57.6 -0.4,2.6 c -1.1,-0.2 -1.9,0 -2.4,0.8 -0.2,0.4 -0.3,0.7 -0.2,1 0.1,0.3 0.3,0.6 0.5,0.7 0.3,0.2 0.6,0.2 1,0.1 0.3,-0.1 0.9,-0.5 1.7,-1.1 0.7,-0.6 1.4,-1 1.9,-1.2 0.5,-0.3 1,-0.4 1.7,-0.4 0.7,0 1.2,0.2 1.9,0.5 1,0.6 1.8,1.5 2,2.6 0.2,1.1 0,2.3 -0.7,3.5 -1.2,2.1 -3,2.8 -5.5,2.2 l 0.6,-2.6 c 1.4,0.4 2.3,0.1 2.8,-0.8 0.2,-0.4 0.3,-0.8 0.3,-1.2 -0.1,-0.4 -0.3,-0.7 -0.6,-0.9 -0.3,-0.2 -0.6,-0.2 -0.9,-0.1 -0.3,0.1 -0.8,0.4 -1.5,0.9 -0.8,0.7 -1.5,1.1 -2,1.5 -0.5,0.3 -1,0.4 -1.8,0.4 -0.6,0 -1.2,-0.2 -1.9,-0.5 -1,-0.6 -1.7,-1.5 -2,-2.5 -0.3,-1 -0.1,-2.1 0.5,-3.2 1.3,-2.1 2.9,-2.8 5,-2.3 z"
     id="path9" /><path
     class="st1"
     d="m 29.9,53.5 4.9,-6.4 1.9,1.4 -3.1,4.2 2.5,1.9 2.4,-3.2 1.9,1.4 -2.4,3.2 2.6,2 3.1,-4.2 1.9,1.5 -4.9,6.4 z"
     id="path10" /><path
     class="st1"
     d="m 47,46.2 2,-1.9 c 0.9,1 1.6,2.2 1.6,3.4 0.1,1.2 -0.3,2.3 -1.2,3.3 -1.1,1.1 -2.4,1.7 -3.9,1.5 -1.5,-0.2 -3,-1 -4.5,-2.6 -1.6,-1.5 -2.5,-2.9 -2.8,-4.4 -0.3,-1.5 0.1,-2.8 1.4,-3.9 2,-2 4.2,-1.9 6.9,0.3 L 44.8,44 c -1.5,-1.4 -2.6,-1.6 -3.4,-0.7 -0.4,0.4 -0.5,1 -0.3,1.7 0.2,0.7 0.9,1.7 2.3,2.9 1.1,1.1 2.1,1.8 2.8,2 0.6,0.2 1.2,0 1.7,-0.4 0.5,-0.8 0.3,-1.8 -0.9,-3.3 z"
     id="path11" /><path
     class="st1"
     d="m 45,36.5 2.3,-1.9 4.8,5.9 c 0.6,0.8 1.1,1.4 1.6,1.7 0.3,0.3 0.7,0.4 1,0.4 0.4,0 0.7,-0.2 1,-0.4 0.4,-0.3 0.6,-0.6 0.7,-1 0.1,-0.4 0,-0.7 -0.2,-1 C 56,39.9 55.6,39.3 55,38.4 l -4.8,-6 1.9,-1.6 4.7,5.8 c 0.9,1.1 1.6,2.1 1.9,2.8 0.3,0.7 0.4,1.5 0.1,2.3 -0.2,0.8 -0.8,1.7 -1.8,2.4 -0.9,0.7 -1.8,1.1 -2.5,1.2 -0.7,0.1 -1.5,0 -2.1,-0.4 -0.6,-0.4 -1.6,-1.2 -2.6,-2.6 z"
     id="path12" /><path
     class="st1"
     d="m 55.3,28.6 3.6,-2.2 c 0.7,-0.4 1.2,-0.7 1.7,-0.8 0.4,-0.2 0.8,-0.2 1.5,-0.2 0.5,0 1,0.2 1.6,0.6 0.5,0.3 0.9,0.8 1.4,1.5 0.8,1.5 0.9,2.7 0.2,3.9 l 5.1,3.7 -2.7,1.7 -4.3,-3.6 -1.2,0.7 2.7,4.5 -2.5,1.5 z M 59,29 60.9,32.2 62,31.6 C 62.9,31 63.1,30.1 62.5,29.1 62.3,28.7 62,28.5 61.8,28.3 61.5,28.1 61.3,28.1 61,28.1 c -0.2,0 -0.5,0.2 -0.9,0.4 z"
     id="path13" /><path
     class="st1"
     d="m 65.6,22.7 2.6,-1.2 5.7,12 -2.6,1.2 z"
     id="path14" /><path
     class="st1"
     d="m 69.9,20.8 7.8,-2.9 0.8,2.3 -2.5,0.9 3.8,10.1 -2.7,1 -3.8,-10.1 -2.5,0.9 z"
     id="path15" /><path
     class="st1"
     d="m 79,17.3 3.1,-0.8 3,4.3 0.7,-5.2 2.8,-0.7 -1.7,8.3 1.4,5.4 -2.8,0.7 -1.4,-5.4 z"
     id="path16" /><path
     class="st1"
     d="m 104,18.8 2.2,0.2 c -0.2,1.6 -0.7,3 -1.5,4.4 0.5,0.4 0.9,0.6 1.5,0.6 0.1,0 0.2,0 0.4,0 l 0.2,2.3 c -0.3,0.1 -0.7,0.2 -1,0.2 -0.9,0.1 -1.8,-0.3 -2.7,-1 -1,0.9 -2.2,1.5 -3.5,1.6 -1.5,0.1 -2.6,-0.2 -3.3,-0.9 -0.7,-0.7 -1.1,-1.7 -1.2,-2.7 -0.1,-1.7 0.8,-3 2.7,-4.1 -0.9,-1 -1.4,-2 -1.5,-2.9 -0.1,-0.8 0.2,-1.6 0.8,-2.2 0.6,-0.6 1.5,-1 2.5,-1 1,-0.1 1.9,0.2 2.6,0.7 0.6,0.5 1,1.2 1,2.2 0.1,1.4 -0.6,2.5 -2.1,3.3 l 2,2.3 c 0.5,-0.7 0.8,-1.8 0.9,-3 z m -5,2 c -0.8,0.6 -1.2,1.4 -1.1,2.2 0,0.5 0.2,1 0.6,1.4 0.3,0.3 0.8,0.5 1.5,0.4 0.7,0 1.4,-0.3 1.8,-0.9 z m 1,-2.7 c 0.7,-0.5 1.1,-1.1 1,-1.9 0,-0.3 -0.1,-0.5 -0.3,-0.7 -0.2,-0.2 -0.4,-0.3 -0.8,-0.3 -0.3,0 -0.6,0.1 -0.7,0.3 -0.2,0.2 -0.2,0.4 -0.2,0.7 0,0.5 0.3,1.1 1,1.9 z"
     id="path17" /><path
     class="st1"
     d="m 112.8,13.3 2.9,0.2 -1,13.3 -2.9,-0.2 z"
     id="path18" /><path
     class="st1"
     d="m 119.1,13.8 3.2,0.5 2,8.7 1.5,-8.1 2.2,0.4 -2.3,13.1 -2.6,-0.4 -2.3,-10.2 -1.7,9.5 -2.2,-0.4 z"
     id="path19" /><path
     class="st1"
     d="m 131.3,16.3 7.6,2.3 -0.6,2.2 -4.8,-1.5 -1,3.3 3.6,1.1 -0.6,2.2 -3.6,-1.1 -1.6,5 -2.8,-0.8 z"
     id="path20" /><path
     class="st1"
     d="m 140.9,19.4 3.8,1.7 c 0.7,0.3 1.2,0.6 1.7,0.8 0.4,0.2 0.7,0.6 0.9,1 0.3,0.5 0.4,1 0.4,1.7 0,0.7 -0.1,1.2 -0.4,1.9 -0.6,1.6 -1.7,2.4 -3.1,2.5 l -0.1,6.3 -2.9,-1.2 0.5,-5.5 -1.4,-0.6 -2.1,4.8 -2.7,-1.1 z m 1.9,3.1 -1.5,3.4 1.1,0.5 c 1,0.4 1.9,0.1 2.4,-1 0.2,-0.4 0.2,-0.7 0.2,-1.1 0,-0.3 -0.1,-0.6 -0.3,-0.7 -0.2,-0.2 -0.4,-0.3 -0.8,-0.5 z"
     id="path21" /><path
     class="st1"
     d="m 155.3,26.5 2.5,1.6 -3.8,13.3 -2.5,-1.6 0.9,-2.7 -3.2,-2 -2,2 -2.3,-1.5 z m -2.2,8.4 1.8,-5.3 -3.9,3.9 z"
     id="path22" /><path
     class="st1"
     d="M 167.5,38.8 165,38 c 0.4,-1 0.3,-1.9 -0.4,-2.5 -0.3,-0.3 -0.6,-0.4 -1,-0.3 -0.3,0 -0.6,0.2 -0.8,0.4 -0.2,0.3 -0.3,0.6 -0.2,0.9 0.1,0.3 0.4,0.9 0.9,1.9 0.4,0.8 0.8,1.5 0.9,2 0.2,0.5 0.2,1.1 0.1,1.8 -0.1,0.6 -0.4,1.1 -0.8,1.8 -0.8,0.9 -1.8,1.5 -2.9,1.6 -1.1,0.1 -2.3,-0.3 -3.4,-1.2 -1.9,-1.6 -2.3,-3.4 -1.2,-5.7 l 2.5,1 c -0.6,1.2 -0.4,2.2 0.4,2.9 0.4,0.3 0.8,0.5 1.2,0.4 0.4,0 0.7,-0.2 1,-0.5 0.2,-0.2 0.3,-0.5 0.3,-0.8 0,-0.3 -0.2,-0.8 -0.6,-1.6 -0.5,-0.9 -0.9,-1.7 -1.1,-2.2 -0.2,-0.5 -0.2,-1.1 -0.2,-1.8 0.1,-0.6 0.3,-1.2 0.8,-1.8 0.7,-0.9 1.7,-1.5 2.7,-1.6 1,-0.1 2.1,0.2 3.1,1 1.5,1.5 2,3.2 1.2,5.1 z"
     id="path23" /><path
     class="st1"
     d="m 170.8,38 5.8,5.9 -1.8,1.8 -1.9,-2 -7.7,7.6 -2.1,-2.1 7.7,-7.6 -1.9,-1.9 z"
     id="path24" /><path
     class="st1"
     d="m 178.1,45.5 2.6,3.2 c 0.5,0.6 0.8,1.1 1,1.6 0.2,0.5 0.3,0.8 0.3,1.4 0,0.5 -0.1,1.1 -0.4,1.7 -0.3,0.5 -0.7,1 -1.2,1.5 -1.2,1 -2.6,1.2 -3.9,0.7 l -3,5.5 -2,-2.5 3,-4.7 -0.9,-1.1 -4.2,3.2 -1.8,-2.3 z m 0.1,3.6 -2.9,2.3 0.8,1 c 0.7,0.9 1.6,0.9 2.6,0.1 0.3,-0.3 0.6,-0.5 0.7,-0.8 0.1,-0.3 0.1,-0.6 0.1,-0.8 -0.1,-0.2 -0.2,-0.5 -0.5,-0.8 z"
     id="path25" /><path
     class="st1"
     d="m 185.3,55.1 1.5,2.5 -6.5,3.8 c -0.9,0.5 -1.6,0.9 -1.9,1.2 -0.3,0.3 -0.5,0.6 -0.5,1 0,0.4 0.1,0.7 0.3,1.1 0.2,0.4 0.5,0.7 0.9,0.8 0.3,0.1 0.7,0.1 1.1,0 0.4,-0.1 1,-0.5 2,-1 l 6.5,-3.8 1.2,2.1 -6.4,3.8 c -1.2,0.7 -2.3,1.2 -3,1.5 -0.7,0.2 -1.5,0.2 -2.3,-0.2 -0.8,-0.3 -1.6,-1 -2.2,-2.1 -0.6,-1 -0.9,-1.9 -0.9,-2.6 0,-0.7 0.2,-1.5 0.6,-2.1 0.4,-0.6 1.5,-1.4 3,-2.3 z"
     id="path26" /><path
     class="st1"
     d="m 186.5,75.6 0.9,2.6 c -1.4,0.5 -2.6,0.5 -3.7,0.1 -1.1,-0.4 -2,-1.2 -2.5,-2.5 -0.6,-1.5 -0.6,-2.9 0.2,-4.2 0.8,-1.3 2.2,-2.3 4.1,-3.1 2,-0.8 3.6,-1.1 5.2,-0.8 1.5,0.3 2.5,1.2 3.1,2.8 1,2.6 0.1,4.6 -2.9,6.2 l -1.2,-2.4 c 1.8,-0.8 2.5,-1.8 2,-2.9 -0.2,-0.5 -0.7,-0.8 -1.5,-0.9 -0.7,-0.1 -2,0.2 -3.6,0.9 -1.5,0.6 -2.5,1.2 -2.9,1.8 -0.4,0.5 -0.5,1.1 -0.2,1.8 0.2,0.9 1.3,1.1 3,0.6 z"
     id="path27" /><path
     class="st1"
     d="m 195.7,76 2.4,7.9 -2.4,0.7 -0.8,-2.6 -10.4,3.1 -0.8,-2.8 10.4,-3.1 -0.7,-2.5 z"
     id="path28" /><path
     class="st1"
     d="m 198.6,86.1 0.5,2.9 -7.5,1.4 c -1,0.2 -1.8,0.4 -2.2,0.5 -0.4,0.2 -0.6,0.4 -0.8,0.7 -0.2,0.3 -0.2,0.7 -0.1,1.1 0.1,0.5 0.3,0.8 0.5,1 0.3,0.2 0.6,0.3 1,0.3 0.4,0 1.1,-0.1 2.2,-0.3 l 7.5,-1.4 0.4,2.4 -7.4,1.4 c -1.5,0.2 -2.6,0.4 -3.3,0.3 -0.7,0 -1.5,-0.4 -2.1,-0.9 -0.6,-0.6 -1,-1.5 -1.2,-2.7 -0.2,-1.1 -0.2,-2.1 0.1,-2.8 0.3,-0.7 0.7,-1.2 1.4,-1.7 0.7,-0.5 1.9,-0.7 3.5,-1 z"
     id="path29" /><path
     class="st1"
     d="m 200.6,98.8 0.2,4.2 c 0,0.8 0,1.5 0,1.9 -0.1,0.4 -0.2,0.8 -0.5,1.4 -0.3,0.4 -0.7,0.8 -1.2,1 -0.5,0.3 -1.1,0.4 -1.9,0.4 -1.7,0.1 -2.8,-0.5 -3.5,-1.8 l -5.7,2.7 -0.1,-3.2 5.2,-2 -0.1,-1.5 -5.3,0.2 -0.1,-2.9 z m -2,3 -3.7,0.2 v 1.2 c 0,1.1 0.7,1.7 2,1.7 0.4,0 0.8,-0.1 1,-0.3 0.3,-0.2 0.4,-0.4 0.5,-0.6 0.1,-0.2 0.1,-0.5 0.1,-1 z"
     id="path30" /><path
     class="st1"
     d="m 200.9,110.8 -0.6,8.1 -2.3,-0.2 0.4,-5.1 -3.1,-0.2 -0.3,4.1 -2.3,-0.2 0.3,-4.1 -3.2,-0.2 -0.4,5.1 -2.4,-0.2 0.6,-8.1 z"
     id="path31" /><path
     class="st1"
     d="m 49.9,168.6 -2.4,-1 c 0.5,-1 0.5,-1.9 -0.1,-2.5 -0.3,-0.3 -0.6,-0.4 -0.9,-0.5 -0.3,0 -0.6,0.1 -0.8,0.3 -0.3,0.2 -0.4,0.6 -0.3,0.9 0.1,0.3 0.3,1 0.6,2 0.4,0.8 0.6,1.6 0.7,2.1 0.1,0.5 0.1,1.1 -0.1,1.8 -0.2,0.6 -0.5,1.1 -1,1.7 -0.8,0.8 -1.9,1.2 -3.1,1.2 -1.1,-0.1 -2.3,-0.6 -3.2,-1.7 -1.7,-1.8 -1.9,-3.6 -0.6,-5.8 l 2.3,1.4 c -0.7,1.1 -0.7,2.2 0,2.9 0.3,0.4 0.7,0.5 1.1,0.6 0.4,0 0.7,-0.1 1,-0.4 0.2,-0.2 0.4,-0.5 0.4,-0.8 0,-0.3 -0.1,-0.9 -0.5,-1.7 -0.4,-0.9 -0.7,-1.8 -0.8,-2.3 -0.1,-0.5 -0.1,-1.1 0,-1.8 0.2,-0.6 0.5,-1.1 1,-1.7 0.8,-0.8 1.9,-1.2 2.9,-1.2 1,0 2.1,0.5 2.9,1.4 1.7,1.4 2.1,3.2 0.9,5.1 z"
     id="path32" /><path
     class="st1"
     d="m 53.4,167.8 6.2,5.1 -1.5,1.7 -4.1,-3.2 -2,2.4 3.1,2.5 -1.5,1.8 -3.1,-2.5 -2.1,2.5 4.1,3.2 -1.5,1.9 -6.2,-5.1 z"
     id="path33" /><path
     class="st1"
     d="m 61.8,184.1 2.2,1.6 c -0.8,1.1 -1.9,2 -3,2.3 -1.1,0.3 -2.3,0.1 -3.4,-0.5 -1.4,-0.8 -2.1,-2.1 -2.2,-3.5 -0.1,-1.5 0.4,-3.1 1.6,-4.9 1.1,-1.9 2.4,-3 3.7,-3.6 1.4,-0.6 2.8,-0.4 4.2,0.4 2.4,1.5 2.7,3.7 1.1,6.8 l -2.4,-1.2 c 0.9,-1.7 0.9,-2.9 0,-3.4 -0.5,-0.3 -1.1,-0.3 -1.8,0 -0.7,0.3 -1.5,1.2 -2.4,2.8 -0.8,1.4 -1.4,2.4 -1.4,3.1 0,0.7 0.2,1.2 0.7,1.6 1,0.4 2,0 3.1,-1.5 z"
     id="path34" /><path
     class="st1"
     d="m 70,179.1 2.7,1.1 -3.1,7 c -0.4,0.9 -0.7,1.7 -0.8,2.1 -0.1,0.4 0,0.8 0.2,1.1 0.2,0.3 0.5,0.6 0.9,0.7 0.4,0.2 0.8,0.2 1.2,0.1 0.3,-0.1 0.6,-0.3 0.8,-0.6 0.2,-0.3 0.5,-1 1,-2 l 3.1,-7 2.2,1 -3,6.9 c -0.6,1.4 -1.1,2.3 -1.6,2.9 -0.4,0.6 -1.1,1 -2,1.1 -0.8,0.2 -1.9,0 -3,-0.4 -1,-0.5 -1.8,-1 -2.3,-1.7 -0.4,-0.6 -0.6,-1.4 -0.6,-2.1 0,-0.7 0.4,-2 1.1,-3.5 z"
     id="path35" /><path
     class="st1"
     d="m 80.3,183.6 4.1,1.1 c 0.7,0.2 1.4,0.4 1.8,0.6 0.4,0.2 0.7,0.5 1,0.9 0.3,0.4 0.5,0.9 0.6,1.6 0.1,0.6 0,1.2 -0.2,2 -0.4,1.6 -1.4,2.5 -2.8,2.8 l 0.7,6.2 -3,-0.9 -0.2,-5.5 -1.4,-0.4 -1.5,5 -2.8,-0.8 z m 2.2,2.9 -1,3.5 1.2,0.3 c 1,0.3 1.9,-0.1 2.2,-1.4 0.1,-0.4 0.1,-0.8 0.1,-1.1 -0.1,-0.3 -0.2,-0.5 -0.4,-0.7 -0.2,-0.2 -0.5,-0.3 -0.9,-0.4 z"
     id="path36" /><path
     class="st1"
     d="m 90.7,186.3 2.9,0.5 -2.4,13.1 -2.9,-0.5 z"
     id="path37" /><path
     class="st1"
     d="m 94.5,187.1 8.2,0.8 -0.2,2.5 -2.7,-0.3 -1.1,10.7 -2.9,-0.3 1.1,-10.7 -2.6,-0.3 z"
     id="path38" /><path
     class="st1"
     d="m 102.9,188.1 h 3.2 l 1.9,4.8 2,-4.9 h 2.8 l -3.6,7.7 v 5.6 h -2.9 v -5.6 z"
     id="path39" /><path
     class="st1"
     d="m 119.4,187 2.9,-0.5 5.9,12.5 -2.9,0.5 -1.1,-2.6 -3.6,0.6 -0.2,2.8 -2.6,0.4 z m 3.8,7.8 -2.3,-5.1 -0.3,5.6 z"
     id="path40" /><path
     class="st1"
     d="m 133,190.3 4.4,-1.4 2.1,6.8 -1.1,0.4 -0.8,-1.4 c -0.3,1.4 -1.1,2.2 -2.6,2.6 -1.5,0.4 -2.8,0.2 -3.9,-0.6 -1.2,-0.8 -2.1,-2.3 -2.7,-4.2 -0.6,-2.1 -0.7,-3.8 -0.3,-5.3 0.4,-1.5 1.5,-2.5 3.1,-3 2.6,-0.8 4.5,0.2 5.7,3 l -2.4,1.1 c -0.7,-1.6 -1.6,-2.3 -2.6,-2 -0.6,0.2 -1,0.6 -1.2,1.4 -0.2,0.8 0,2 0.5,3.6 0.4,1.6 0.9,2.5 1.6,3 0.5,0.5 1.1,0.6 1.9,0.4 1.1,-0.3 1.5,-1.4 0.9,-3 l -1.9,0.6 z"
     id="path41" /><path
     class="st1"
     d="m 137.6,182.2 7.4,-3.3 0.9,2.1 -4.7,2.2 1.2,2.8 3.6,-1.7 0.9,2.1 -3.6,1.7 1.4,3 4.7,-2.2 0.9,2.2 -7.4,3.3 z"
     id="path42" /><path
     class="st1"
     d="m 145.9,178.2 2.8,-1.7 7.3,5.2 -4.4,-7 1.9,-1.1 7,11.3 -2.2,1.4 -8.5,-6 5.1,8.2 -1.9,1.1 z"
     id="path43" /><path
     class="st1"
     d="m 165.6,174.7 2.2,-1.6 c 0.8,1.1 1.2,2.4 1.1,3.6 -0.1,1.2 -0.6,2.3 -1.7,3.1 -1.2,1 -2.6,1.4 -4.1,0.9 -1.5,-0.4 -2.8,-1.5 -4.2,-3 -1.4,-1.7 -2.1,-3.2 -2.2,-4.7 -0.1,-1.5 0.5,-2.7 1.8,-3.8 2.2,-1.8 4.4,-1.4 6.8,1.1 l -2,1.9 c -1.4,-1.5 -2.4,-1.9 -3.3,-1.1 -0.5,0.4 -0.6,0.9 -0.5,1.7 0.1,0.7 0.7,1.8 2,3.2 1,1.2 1.9,2 2.5,2.3 0.6,0.3 1.2,0.2 1.8,-0.2 0.8,-0.8 0.7,-2 -0.2,-3.4 z"
     id="path44" /><path
     class="st1"
     d="m 162.2,166.6 2.2,-2.3 4.8,2 -2.1,-4.8 2,-2.1 3,8 4.1,3.8 -2,2.1 -4.1,-3.8 z"
     id="path45" /><path
     class="st2"
     d="m 107,30.4 c -42.3,0 -76.6,34.3 -76.6,76.6 0,19.9 7.6,38 20,51.7 l 0.2,-2.6 C 38.8,142.4 32.2,125.2 32.2,106.9 32.2,87 40,68.2 54.1,54 68.2,40 87,32.2 107,32.2 c 19.9,0 38.7,7.8 52.9,21.9 14.2,14.1 21.9,32.9 21.9,52.9 0,20 -7.8,38.7 -21.9,52.9 -14.1,14.1 -32.9,21.9 -52.9,21.9 -18.2,0 -35.3,-6.4 -48.9,-18.3 l -1.4,1.4 c 13.5,11.7 31.1,18.8 50.3,18.8 42.3,0 76.6,-34.3 76.6,-76.5 C 183.7,64.7 149.4,30.4 107,30.4 Z"
     id="path46" /><path
     class="st3"
     d="m 22.8,126.9 -1.9,0.6 c 2.7,11.2 7.5,21.7 14,30.8 l 1.7,-1 C 30.1,148.2 25.4,137.9 22.8,126.9 Z m 168.6,0 c -2.6,11.1 -7.4,21.3 -13.8,30.3 l 1.7,1 c 6.5,-9.1 11.3,-19.5 14,-30.8 z"
     id="path47" /><path
     class="st3"
     d="m 18.4,128.3 -1.9,0.6 c 2.8,11.6 7.8,22.4 14.5,32 l 1.7,-1 C 26,150.4 21.1,139.7 18.4,128.3 Z m 177.3,0 c -2.7,11.5 -7.7,22.1 -14.3,31.5 l 1.7,1 c 6.8,-9.5 11.7,-20.4 14.5,-32 z"
     id="path48" /><path
     class="st3"
     d="m 27,125.6 -1.9,0.6 c 2.6,10.9 7.2,20.9 13.5,29.7 l 1.7,-1 C 34,146.1 29.5,136.3 27,125.6 Z m 160.2,0 c -2.5,10.7 -7.1,20.6 -13.2,29.2 l 1.7,1 C 182,147 186.6,137 189.2,126.1 Z"
     id="path49" /><path
     class="st3"
     d="m 116.4,135.2 6.9,3.3 v 5.4 c -7.8,0.2 -15.8,2.1 -21.3,4.2 -2.5,-2.9 -4.8,-5.9 -6.8,-9.1 h 4.6 l 0.8,-14.6 h 4.3 l 0.8,14.6 h 3.2 v -3.6 l 7.4,3.5 z m -4.8,15.2 c -0.8,0 -1.6,0.9 -1.6,2 v 3.4 c 1,0.8 2.1,1.7 3.1,2.5 v -5.9 c 0.1,-1.1 -0.7,-2 -1.5,-2 z m 6.8,-2 c -0.8,0 -1.6,0.9 -1.6,2 v 10.5 c 1,0.6 2.1,1.4 3.1,2 v -12.5 c 0,-1.1 -0.6,-2 -1.5,-2 z m 5.7,16.6 c 0.8,0.4 1.7,0.8 2.5,1.1 0.2,-0.1 0.3,-0.1 0.5,-0.2 v -38.3 c 0,0 0,-0.1 0.1,-0.1 h 0.7 c 0,0 0.1,0 0.1,0.1 v 37.9 c 0.9,-0.4 1.9,-0.9 2.8,-1.4 v -38.4 c 0,0 0,-0.1 0.1,-0.1 h 0.7 c 0,0 0.1,0 0.1,0.1 v 38 c 0.9,-0.5 1.9,-1 2.8,-1.6 v -34.5 c 0,0 0,-0.1 0.1,-0.1 h 0.7 c 0,0 0.1,0 0.1,0.1 v 34.1 c 1.1,-0.7 2.2,-1.5 3.2,-2.2 v -38 H 124.3 V 165 Z m 24.2,-35.4 h -2.1 v -2.9 c 0,-0.2 -0.1,-0.3 -0.1,-0.5 -0.2,-0.2 -0.4,-0.4 -0.7,-0.4 -0.3,0 -0.6,0.2 -0.7,0.4 -0.1,0.1 -0.1,0.3 -0.1,0.5 v 2.9 h -2.1 v 3.6 h -3.2 V 159 c 4.7,-3.4 8.9,-7.3 12.6,-11.6 v -14.1 h -3.4 v -3.6 z m 4.1,16.8 c 2,-2.4 3.7,-4.9 5.4,-7.6 v -2.5 h -5.4 z m -7.6,-49.8 h -3.2 l 1.7,-5.4 z m 0,0 h -3.2 l 1.7,-5.4 z m 23.3,-10.3 v 15.9 c 0,1.7 0,3.2 -0.2,4.9 H 94.8 c 2.6,-3.3 4.1,-7.5 4.1,-11.7 0,-3.8 -1.1,-7.5 -3.1,-10.5 9,-1.2 21,-2.7 30.8,-2.8 0.5,0 1,0 1.5,0 18.3,-0.2 34.1,2.9 40,4.2 z m -61.6,8.6 c 0,-3.3 0.9,-5 2.8,-5 1.7,0 2.5,1 2.5,3.2 l 3.7,-0.2 C 115.1,89 113.1,87 109.3,87 c -2.1,0 -3.8,0.7 -5,2.2 -1.2,1.5 -1.9,3.3 -1.9,5.7 0,2.5 0.6,4.4 1.9,5.8 1.2,1.4 2.9,2.1 5,2.1 1.7,0 3,-0.5 4.2,-1.5 1.2,-1 1.8,-2.4 2.1,-4.2 L 112.1,97 c -0.3,2 -1.2,2.9 -2.7,2.9 -0.9,0 -1.7,-0.3 -2.2,-1 -0.4,-0.8 -0.7,-2 -0.7,-4 z m 14.9,-7.7 h -3.5 v 15.3 h 3.5 z m 14.3,10.4 c 0,-0.8 -0.2,-1.7 -0.7,-2.4 -0.5,-0.7 -1.1,-1.2 -1.9,-1.6 -0.7,-0.3 -1.9,-0.6 -3.4,-0.9 -0.9,-0.2 -1.6,-0.4 -1.8,-0.6 -0.3,-0.2 -0.4,-0.5 -0.4,-0.9 0,-0.9 0.7,-1.4 2.1,-1.4 1.4,0 2.2,0.6 2.6,1.8 l 3,-1 c -0.8,-2.4 -2.8,-3.6 -5.8,-3.6 -1.7,0 -3,0.4 -4.1,1.4 -1,0.9 -1.5,2.1 -1.5,3.4 0,1.3 0.4,2.4 1.2,3 0.8,0.7 2.2,1.2 4.2,1.7 1,0.2 1.8,0.4 2.1,0.7 0.4,0.2 0.5,0.6 0.5,1 0,0.4 -0.2,0.8 -0.6,1.1 -0.4,0.3 -1,0.5 -1.9,0.5 -1.7,0 -2.7,-0.7 -3.1,-2.2 l -3.3,0.7 c 0.3,1.4 1,2.5 2.2,3.2 1.1,0.7 2.4,1 4.1,1 2.1,0 3.6,-0.5 4.8,-1.6 1.2,-0.7 1.7,-1.9 1.7,-3.3 z m 14.7,4.9 -4.8,-15.3 h -4.2 l -4.9,15.3 h 3.1 l 0.9,-3.1 h 5 l 0.9,3.1 z m -7.2,-11.3 1.6,5.4 h -3.2 z m 1.6,5.4 h -3.2 l 1.7,-5.4 z m 0,0 h -3.2 l 1.7,-5.4 z"
     id="path50" /><path
     class="st4"
     d="m 105.9,126.3 -0.1,-1.2 c 0.9,2 2.5,3.4 4.5,4.4 l -0.1,0.5 c -1.8,-0.8 -3.4,-2.1 -4.3,-3.7 z m 17.4,-5.5 c -0.2,-5.1 -4.4,-9 -9.5,-9 -5.1,0 -9.6,4.3 -9.6,9.6 0,0.7 0.1,1.5 0.3,2.2 h 0.5 c -0.2,-0.7 -0.3,-1.5 -0.3,-2.2 0,-5 4.1,-8.9 8.9,-8.9 5,0 8.9,4.1 8.9,8.9 0,3.6 -2.2,6.8 -5.3,8.2 0,0.2 0.1,0.3 0.2,0.5 2.9,-1.2 5.1,-3.9 5.6,-7.3 z m -1.8,0.4 c 0,-4.3 -3.4,-7.7 -7.7,-7.7 -4.3,0 -7.7,3.4 -7.7,7.7 0,3 1.8,5.7 4.5,7 0,-0.2 0.1,-0.4 0.2,-0.5 -2.4,-1.1 -4.1,-3.5 -4.1,-6.3 0,-3.9 3.2,-7.1 7.1,-7.1 3.9,0 7.1,3.2 7.1,7.1 0,2.8 -1.7,5.2 -3.9,6.3 0,0.2 0.1,0.4 0.2,0.5 2.5,-1.3 4.3,-4 4.3,-7 z m -1.5,0 c 0,-3.4 -2.8,-6.1 -6.1,-6.1 -3.4,0 -6.1,2.8 -6.1,6.1 0,2.4 1.4,4.5 3.3,5.5 0.1,-0.2 0.1,-0.4 0.2,-0.6 -1.8,-0.9 -2.9,-2.8 -2.9,-4.9 0,-3 2.5,-5.5 5.5,-5.5 3,0 5.5,2.5 5.5,5.5 0,2.1 -1.1,3.9 -2.9,4.9 0.1,0.2 0.1,0.4 0.2,0.6 2,-1 3.3,-3.1 3.3,-5.5 z m -1.2,0 c 0,-2.7 -2.2,-4.9 -5,-4.9 -2.7,0 -5,2.2 -5,4.9 0,1.9 1,3.4 2.5,4.3 0.1,-0.2 0.1,-0.4 0.2,-0.6 -1.2,-0.7 -2.1,-2.1 -2.1,-3.6 0,-2.4 2,-4.4 4.4,-4.4 2.4,0 4.4,2 4.4,4.4 0,1.6 -0.8,2.9 -2,3.6 0.1,0.2 0.1,0.4 0.2,0.6 1.4,-0.9 2.4,-2.4 2.4,-4.3 z m -2,0 c 0,-1.7 -1.4,-3.1 -3,-3.1 -1.7,0 -3,1.4 -3,3.1 0,0.9 0.4,1.8 1,2.4 0.1,-0.2 0.1,-0.4 0.2,-0.7 -0.4,-0.4 -0.6,-1 -0.6,-1.7 0,-1.4 1,-2.4 2.4,-2.4 1.2,0 2.4,1 2.4,2.4 0,0.6 -0.2,1.1 -0.6,1.7 0.1,0.2 0.1,0.4 0.2,0.7 0.7,-0.6 1,-1.5 1,-2.4 z m 1,0 c 0,-2.2 -1.8,-3.9 -3.9,-3.9 -2.1,0 -3.9,1.8 -3.9,3.9 0,1.4 0.7,2.6 1.8,3.3 0.1,-0.2 0.1,-0.4 0.2,-0.6 -0.8,-0.6 -1.4,-1.6 -1.4,-2.7 0,-1.9 1.5,-3.3 3.3,-3.3 1.8,0 3.3,1.5 3.3,3.3 0,1 -0.5,2.1 -1.4,2.6 0.1,0.2 0.1,0.4 0.2,0.6 1.1,-0.6 1.8,-1.9 1.8,-3.2 z M 148,109.8 h -0.4 c 1.2,3.6 1.9,7.4 1.9,11.4 0,2.6 -0.3,5.2 -0.8,7.7 h 0.3 v 0.3 c 0.6,-2.6 0.9,-5.3 0.9,-8 -0.1,-4 -0.7,-7.8 -1.9,-11.4 z m 9.3,0 h -0.4 c 0.9,3.6 1.5,7.5 1.5,11.4 0,5 -0.8,9.9 -2.4,14.4 h 0.4 c 1.6,-4.5 2.4,-9.3 2.4,-14.4 0.1,-4 -0.5,-7.8 -1.5,-11.4 z m -16.9,0 h -0.5 c 1.6,3.5 2.4,7.4 2.4,11.4 0,4 -0.8,7.8 -2.4,11.3 h 0.5 c 0.4,-1 0.8,-2.2 1.1,-3.3 v -0.3 h 0.1 c 0.7,-2.5 1,-5 1,-7.7 0.1,-4.1 -0.8,-7.9 -2.2,-11.4 z m -48.4,17 -0.4,0.4 c 1.1,4.3 3.4,8 6.5,10.9 h 0.6 c -3.2,-3 -5.6,-6.8 -6.7,-11.3 z m 41.4,-17 c 1.9,3.2 3,7 3.1,10.9 h 0.4 c -0.1,-3.9 -1.1,-7.7 -3,-10.9 z m -39,0 h -0.5 c -0.4,0.6 -0.7,1.4 -1,2.1 v 1.1 c 0.3,-1 0.8,-2.2 1.5,-3.2 z m 22.7,0 h -6.5 c -5,1.5 -8.6,6 -8.6,11.4 0,0.7 0.1,1.5 0.2,2.2 h 0.5 c -0.1,-0.7 -0.2,-1.5 -0.2,-2.2 0,-6.2 5.1,-11.3 11.3,-11.3 6.2,0 11.1,4.9 11.3,10.9 h 0.5 c -0.1,-5.3 -3.6,-9.7 -8.5,-11 z m -7.7,22.4 0.1,-0.5 c -1.4,-0.5 -2.5,-1.4 -3.5,-2.3 v 0.7 c 1,0.9 2.2,1.6 3.4,2.1 z m 8.8,-0.5 c 0,0.2 0.1,0.3 0.1,0.5 2,-0.8 3.6,-2.1 5,-3.7 v -0.8 c -1.2,1.7 -3,3.2 -5.1,4 z m 0.9,2.9 c 0,0.2 0.1,0.3 0.1,0.5 1.6,-0.6 2.9,-1.4 4.2,-2.4 V 132 c -1.4,1 -2.8,2 -4.3,2.6 z m -12.8,-0.7 c 0.6,0.4 1.4,0.7 2.1,1 v -0.5 c -0.7,-0.3 -1.5,-0.6 -2.1,-1.1 z M 99,121.2 c 0,1.7 0.3,3.3 0.8,4.9 l 0.1,-1.5 c -0.3,-1 -0.4,-2.2 -0.4,-3.4 0,-4.7 2.3,-8.8 5.7,-11.4 h -0.8 c -3.3,2.7 -5.4,6.8 -5.4,11.4 z m 29.2,-0.4 h 0.5 c -0.1,-4.4 -2.2,-8.3 -5.4,-10.9 h -0.8 c 3.3,2.5 5.5,6.4 5.7,10.9 z m -0.4,-11 c 2.5,3 3.9,6.9 4.1,10.9 h 0.5 c -0.1,-4.2 -1.6,-7.9 -3.9,-10.9 z m -32,11.4 c 0,-4.4 1.6,-8.3 4.1,-11.4 h -0.6 c -2.5,3.1 -3.9,7.1 -3.9,11.4 0,4.3 1.6,8.4 4.1,11.6 v -0.7 c -2.2,-3 -3.7,-6.9 -3.7,-10.9 z m 10.7,16.9 h 1.1 c -0.4,-0.1 -0.7,-0.3 -1.1,-0.4 z m 15.7,-0.9 0.5,0.2 c 0.2,-0.1 0.4,-0.2 0.6,-0.3 v -0.5 c -0.4,0.2 -0.8,0.4 -1.1,0.6 z"
     id="path51" /></g>

</svg>
